<svg width="1040" height="1040" viewBox="0 0 1040 1040" fill="none" xmlns="http://www.w3.org/2000/svg">
<circle cx="520" cy="520" r="520" fill="#0E1416"/>
<path d="M517.453 239.044C580.428 239.044 631.06 241.997 676.8 248.348C715.297 253.679 746.314 262.46 771.63 275.213C783.712 281.276 785.333 287.783 785.935 290.214C787.87 298.028 787.53 308.769 787.138 320.137C787.007 324.345 786.85 328.683 786.824 333.099L784.889 580.116C784.784 593.392 784.732 606.642 784.654 619.918C784.523 646.287 784.392 673.571 783.947 700.28C783.555 723.382 781.724 749.908 771.107 771.39C761.221 791.382 742.103 797.314 727.772 798.752C716.788 799.875 704.47 800.398 690.112 800.398C676.591 800.398 662.495 799.928 648.87 799.457C636.918 799.065 624.548 798.647 612.334 798.517L371.81 796.321H369.639C368.488 796.295 367.337 796.295 366.187 796.295C360.669 796.295 355.046 796.4 349.606 796.504C344.245 796.609 338.7 796.713 333.365 796.713C315.268 796.713 295.13 795.537 282.969 786.809C267.147 775.44 259.955 755.892 256.712 741.466C251.116 716.561 251.429 689.8 251.769 661.445L251.848 655.12C252.266 616.076 253.129 576.405 254.359 537.205C256.791 460.946 260.897 382.911 266.572 305.006C277.451 302.706 287.049 295.493 292.07 284.909C308.468 250.438 355.307 242.232 420.584 240.56C451.523 239.749 484.501 238.965 517.453 238.965M517.453 202.457C484.71 202.457 452.019 203.214 419.643 204.051C361.715 205.54 286.735 210.95 258.988 269.281C257.209 268.863 255.378 268.653 253.522 268.653C243.061 268.653 232.077 275.344 231.057 288.724C224.858 371.072 220.386 453.576 217.771 536.107C216.516 575.674 215.679 615.24 215.234 654.807C214.894 686.507 213.979 718.416 220.988 749.568C226.898 775.78 239.399 800.66 261.603 816.575C281.871 831.132 307.867 833.353 333.365 833.353C344.585 833.353 355.7 832.935 366.187 832.935C367.233 832.935 368.279 832.935 369.299 832.935C450.189 833.667 531.105 834.398 611.994 835.13C637.65 835.365 664.012 836.986 690.086 836.986C703.999 836.986 717.834 836.515 731.459 835.13C762.685 831.968 789.701 816.261 803.902 787.566C817.135 760.805 820.038 730.307 820.509 700.855C821.189 660.687 821.136 620.519 821.45 580.351C822.104 498.004 822.732 415.682 823.385 333.335C823.516 316.348 825.556 297.95 821.398 281.302C816.9 263.192 804.32 250.647 788.027 242.467C755.049 225.872 718.148 217.092 681.769 212.048C627.686 204.547 572.478 202.404 517.401 202.404L517.453 202.457Z" fill="white"/>
<path d="M337.227 440.501C343.385 470.201 347.867 500.214 367.626 524.377C374.964 533.362 393.229 531.194 397.999 520.485C410.342 492.717 421.506 464.506 431.438 435.851C450.385 466.152 468.598 496.871 484.348 529C491.319 543.21 516.974 540.598 519.7 524.403C531.152 456.069 542.001 387.657 552.195 319.14C553.741 308.848 549.627 298.426 538.699 295.422C529.579 292.914 516.45 298.53 514.904 308.874C507.383 359.367 499.495 409.834 491.292 460.222C475.805 433.369 459.138 407.196 442.418 381.048C433.456 367.047 411.94 369.45 407.066 385.645C399.388 411.218 390.74 436.452 381.07 461.319C378.03 447.945 375.331 434.467 372.579 421.014C366.42 391.026 360.576 360.961 354.995 330.843C350.487 306.471 313.196 316.789 317.703 341.082C323.836 374.283 330.335 407.405 337.201 440.474L337.227 440.501Z" fill="white"/>
<path d="M716.059 498.238C684.231 500.227 653.24 496.876 622.851 488.16L626.747 443.137C648.219 446.383 669.847 447.875 691.606 447.194C716.373 446.409 716.478 407.799 691.606 408.558C670.919 409.213 650.442 408.061 630.069 404.763L633.024 370.655C661.635 370.603 690.22 371.388 718.779 373.063C743.598 374.529 743.493 335.893 718.779 334.428C684.336 332.386 649.866 331.627 615.371 332.098C604.282 332.255 596.986 340.867 596.07 351.416C591.755 401.307 587.44 451.173 583.125 501.065C582.314 510.566 587.492 516.404 594.318 518.576C595.913 519.728 597.77 520.723 599.915 521.43C637.209 534.073 676.725 539.308 716.033 536.847C740.695 535.303 740.878 496.667 716.033 498.211L716.059 498.238Z" fill="white"/>
<path d="M518.691 572.597C509.044 609.242 497.28 645.235 483.371 680.418C474.901 649.437 466.456 618.43 457.986 587.448C452.914 568.891 426.09 569.361 420.783 587.448C414.116 610.182 406.744 632.707 398.796 654.996C389.62 627.46 380.469 599.924 371.293 572.388C363.502 548.976 326.221 559.025 334.09 582.62C349.018 627.486 363.972 672.353 378.901 717.194C385.28 736.378 409.044 734.446 416.103 717.194C423.816 698.323 431.057 679.296 437.829 660.086C445.437 687.987 453.044 715.863 460.678 743.764C464.731 758.668 488.731 763.888 495.946 748.358C520.731 694.982 540.94 639.702 555.92 582.802C562.221 558.816 525.018 548.559 518.718 572.571L518.691 572.597Z" fill="white"/>
<path d="M703.096 566.389C671.118 564.531 639.401 560.84 607.867 555.16C600.886 553.904 593.774 555.657 589.015 560.29C584.884 563.379 581.877 568.117 581.328 574.529C577.615 618.555 574.843 662.921 574.791 707.13C574.791 716.579 576.438 725.845 584.335 731.996C593.199 738.906 604.233 737.911 614.823 737.911C637.911 737.911 660.999 737.911 684.087 737.911C708.927 737.911 708.953 699.277 684.087 699.277C660.737 699.277 636.943 700.429 613.489 699.722C613.489 698.309 613.541 696.922 613.568 695.508C613.698 689.305 613.829 683.075 614.038 676.872C614.038 676.375 614.064 675.877 614.091 675.38H665.078C689.918 675.38 689.944 636.746 665.078 636.746H615.685C616.391 623.109 617.307 609.499 618.3 595.914C646.409 600.337 674.7 603.426 703.096 605.075C727.91 606.515 727.832 567.881 703.096 566.441V566.389Z" fill="white"/>
</svg>
