<?xml version="1.0" encoding="UTF-8"?><svg id="Layer_1" xmlns="http://www.w3.org/2000/svg" viewBox="0 0 647.67 647.67"><defs><style>.cls-1{fill:#1be6c9;}.cls-1,.cls-2{stroke-width:0px;}.cls-2{fill:#000;}</style></defs><path class="cls-2" d="M439.28,232.62c-1.72-6.93-6.53-11.73-12.76-14.86-12.61-6.35-26.72-9.71-40.63-11.64-32.97-4.58-67.05-3.94-100.25-3.08-22.15.57-50.82,2.64-61.43,24.96-4.48-1.07-10.22,1.42-10.68,7.44-2.37,31.51-4.08,63.08-5.08,94.66-.48,15.14-.8,30.28-.97,45.42-.13,12.13-.48,24.34,2.2,36.26,2.26,10.03,7.04,19.55,15.53,25.64,11.5,8.26,27.82,6.14,41.18,6.26,30.93.28,61.87.56,92.8.84,15.04.14,30.72,1.53,45.68,0,11.94-1.21,22.27-7.22,27.7-18.2,5.06-10.24,6.17-21.91,6.35-33.18.26-15.37.24-30.74.36-46.11.25-31.51.49-63.01.74-94.52.05-6.5.83-13.54-.76-19.91Z"/><path class="cls-1" d="M251.38,292.49c2.43,11.76,4.2,23.64,12,33.21,2.9,3.56,10.11,2.7,11.99-1.54,4.87-11,9.28-22.17,13.2-33.52,7.48,12,14.67,24.17,20.89,36.89,2.75,5.63,12.88,4.59,13.95-1.82,4.52-27.06,8.8-54.15,12.83-81.29.61-4.07-1.02-8.2-5.33-9.39-3.6-.99-8.78,1.23-9.39,5.33-2.97,20-6.08,39.98-9.32,59.94-6.12-10.63-12.69-21-19.29-31.35-3.53-5.54-12.03-4.59-13.95,1.82-3.03,10.12-6.44,20.12-10.26,29.97-1.2-5.3-2.26-10.64-3.35-15.96-2.43-11.88-4.74-23.78-6.94-35.7-1.78-9.65-16.5-5.56-14.72,4.06,2.43,13.15,4.98,26.27,7.69,39.36Z"/><path class="cls-1" d="M401.31,315.34c-12.59.79-24.85-.54-36.87-3.99l1.54-17.8c8.49,1.28,17.04,1.87,25.65,1.6,9.8-.31,9.84-15.57,0-15.27-8.18.25-16.28-.19-24.34-1.5l1.17-13.48c11.31-.02,22.62.29,33.92.95,9.81.58,9.78-14.69,0-15.27-13.62-.8-27.25-1.11-40.9-.92-4.39.06-7.27,3.46-7.63,7.63-1.71,19.71-3.41,39.43-5.12,59.14-.33,3.76,1.73,6.06,4.43,6.92.63.46,1.37.84,2.21,1.13,14.76,4.99,30.38,7.07,45.93,6.1,9.76-.61,9.83-15.88,0-15.27Z"/><path class="cls-1" d="M323.17,344.63c-3.81,14.52-8.47,28.79-13.97,42.74-3.35-12.28-6.69-24.57-10.04-36.85-2-7.36-12.62-7.17-14.72,0-2.64,9.01-5.55,17.93-8.7,26.77-3.63-10.91-7.26-21.83-10.88-32.74-3.08-9.28-17.83-5.3-14.72,4.06,5.91,17.78,11.82,35.56,17.73,53.34,2.53,7.6,11.93,6.84,14.72,0,3.06-7.47,5.92-15.02,8.6-22.63,3.01,11.06,6.02,22.11,9.04,33.17,1.61,5.9,11.1,7.98,13.95,1.82,9.81-21.16,17.8-43.06,23.73-65.62,2.5-9.51-12.22-13.57-14.72-4.06Z"/><path class="cls-1" d="M395.93,342.36c-12.65-.73-25.2-2.19-37.67-4.44-2.76-.5-5.58.2-7.46,2.03-1.63,1.22-2.83,3.09-3.04,5.62-1.46,17.4-2.57,34.93-2.58,52.41,0,3.74.65,7.4,3.77,9.82,3.51,2.73,7.87,2.34,12.06,2.34,9.14,0,18.27,0,27.41,0,9.82,0,9.84-15.27,0-15.27-9.24,0-18.65.46-27.93.17,0-.55.02-1.11.03-1.66.05-2.45.11-4.91.18-7.36,0-.2.01-.4.02-.59h20.18c9.82,0,9.84-15.27,0-15.27h-19.54c.28-5.38.64-10.76,1.03-16.14,11.12,1.74,22.31,2.97,33.55,3.62,9.81.57,9.78-14.7,0-15.27Z"/></svg>