<?xml version="1.0" encoding="UTF-8"?><svg id="Layer_1" xmlns="http://www.w3.org/2000/svg" viewBox="0 0 516.94 516.94"><defs><style>.cls-1{fill:#000;}.cls-1,.cls-2,.cls-3{stroke-width:0px;}.cls-2{fill:#03ffcf;}.cls-3{fill:#fff;}</style></defs><rect class="cls-2" width="516.94" height="516.94"/><polygon class="cls-1" points="432.29 214.36 414.64 214.36 397 214.36 379.35 214.36 361.71 214.36 344.07 214.36 326.42 214.36 308.78 214.36 291.13 214.36 273.49 214.36 261.1 214.36 255.84 214.36 243.46 214.36 225.81 214.36 208.17 214.36 190.52 214.36 172.88 214.36 155.23 214.36 137.59 214.36 119.94 214.36 102.3 214.36 84.66 214.36 67.01 214.36 67.01 232.01 84.66 232.01 84.66 249.65 84.66 267.29 102.3 267.29 102.3 284.94 119.94 284.94 119.94 302.58 137.59 302.58 155.23 302.58 172.88 302.58 190.52 302.58 208.17 302.58 208.17 284.94 225.81 284.94 225.81 267.29 243.46 267.29 243.46 249.65 243.46 232.01 255.84 232.01 261.1 232.01 273.49 232.01 273.49 249.65 273.49 267.29 291.13 267.29 291.13 284.94 308.78 284.94 308.78 302.58 326.42 302.58 344.07 302.58 361.71 302.58 379.35 302.58 397 302.58 397 284.94 414.64 284.94 414.64 267.29 432.29 267.29 432.29 249.65 432.29 232.01 449.93 232.01 449.93 214.36 432.29 214.36"/><rect class="cls-3" x="102.3" y="232.01" width="17.64" height="17.64"/><rect class="cls-3" x="172.88" y="267.29" width="17.64" height="17.64"/><rect class="cls-3" x="155.23" y="249.65" width="17.64" height="17.64"/><rect class="cls-3" x="119.94" y="249.65" width="17.64" height="17.64"/><rect class="cls-3" x="137.59" y="267.29" width="17.64" height="17.64"/><rect class="cls-3" x="190.52" y="249.65" width="17.64" height="17.64"/><rect class="cls-3" x="208.17" y="232.01" width="17.64" height="17.64"/><rect class="cls-3" x="397" y="232.01" width="17.64" height="17.64"/><rect class="cls-3" x="326.42" y="267.29" width="17.64" height="17.64"/><rect class="cls-3" x="344.07" y="249.65" width="17.64" height="17.64"/><rect class="cls-3" x="379.35" y="249.65" width="17.64" height="17.64"/><rect class="cls-3" x="361.71" y="267.29" width="17.64" height="17.64"/><rect class="cls-3" x="308.78" y="249.65" width="17.64" height="17.64"/><rect class="cls-3" x="291.13" y="232.01" width="17.64" height="17.64"/></svg>