<svg width="2535" height="585" viewBox="0 0 2535 585" fill="none" xmlns="http://www.w3.org/2000/svg">
<path d="M2417.8 0.589844H2301H2184.26H2067.46H1950.72H1833.98H1717.18H1600.44H1483.64H1366.9H1284.9H1250.1H1168.17H1051.36H934.625H817.821H701.083H584.279H467.542H350.738H234H117.262H0.458008V117.394H117.262V234.132V350.869H234V467.673H350.738V584.411H467.542H584.279H701.083H817.821H934.625V467.673H1051.36V350.869H1168.17V234.132V117.394H1250.1H1284.9H1366.9V234.132V350.869H1483.64V467.673H1600.44V584.411H1717.18H1833.98H1950.72H2067.46H2184.26V467.673H2301V350.869H2417.8V234.132V117.394H2534.54V0.589844H2417.8Z" fill="black"/>
<path d="M350.738 117.393H234V234.13H350.738V117.393Z" fill="#03FFCF"/>
<path d="M817.821 350.869H701.083V467.607H817.821V350.869Z" fill="#03FFCF"/>
<path d="M701.017 234.131H584.279V350.869H701.017V234.131Z" fill="#03FFCF"/>
<path d="M467.476 234.131H350.738V350.869H467.476V234.131Z" fill="#03FFCF"/>
<path d="M584.279 350.869H467.542V467.607H584.279V350.869Z" fill="#03FFCF"/>
<path d="M934.559 234.131H817.821V350.869H934.559V234.131Z" fill="#03FFCF"/>
<path d="M1051.36 117.393H934.625V234.13H1051.36V117.393Z" fill="#03FFCF"/>
<path d="M2301 117.393H2184.26V234.13H2301V117.393Z" fill="#03FFCF"/>
<path d="M1833.92 350.869H1717.18V467.607H1833.92V350.869Z" fill="#03FFCF"/>
<path d="M1950.72 234.131H1833.98V350.869H1950.72V234.131Z" fill="#03FFCF"/>
<path d="M2184.2 234.131H2067.46V350.869H2184.2V234.131Z" fill="#03FFCF"/>
<path d="M2067.46 350.869H1950.72V467.607H2067.46V350.869Z" fill="#03FFCF"/>
<path d="M1717.18 234.131H1600.44V350.869H1717.18V234.131Z" fill="#03FFCF"/>
<path d="M1600.37 117.393H1483.64V234.13H1600.37V117.393Z" fill="#03FFCF"/>
</svg>
