<svg width="1500" height="500" viewBox="0 0 1500 500" fill="none" xmlns="http://www.w3.org/2000/svg">
<g clip-path="url(#clip0_3315_1066)">
<path d="M350.18 26H366.18V74H382.18V26H398.18V74H390.18V82H358.18V74H350.18V26ZM420.9 26H452.9V34H460.9V42H444.9V34H428.9V50H452.9V58H460.9V74H452.9V82H420.9V74H412.9V66H428.9V74H444.9V58H420.9V50H412.9V34H420.9V26ZM467.62 26H515.62V34H523.62V74H515.62V82H475.62V34H467.62V26ZM491.62 34V74H507.62V34H491.62ZM546.34 26H578.34V34H586.34V42H570.34V34H554.34V74H570.34V66H586.34V74H578.34V82H546.34V74H538.34V34H546.34V26Z" fill="#33E6BF"/>
<path d="M663.78 26H711.78V34H679.78V50H703.78V58H679.78V74H711.78V82H663.78V26ZM734.5 26H766.5V34H774.5V82H758.5V66H742.5V82H726.5V34H734.5V26ZM742.5 34V58H758.5V34H742.5ZM789.22 26H829.22V34H837.22V50H829.22V66H837.22V82H821.22V66H813.22V58H805.22V82H789.22V26ZM805.22 34V50H821.22V34H805.22ZM851.94 26H867.94V34H875.94V42H883.94V26H899.94V82H883.94V58H875.94V50H867.94V82H851.94V26ZM922.66 26H954.66V34H946.66V74H954.66V82H922.66V74H930.66V34H922.66V26ZM977.38 26H993.38V34H1001.38V42H1009.38V26H1025.38V82H1009.38V58H1001.38V50H993.38V82H977.38V26ZM1048.1 26H1088.1V34H1056.1V74H1072.1V58H1064.1V50H1088.1V82H1048.1V74H1040.1V34H1048.1V26ZM1110.82 26H1142.82V34H1150.82V42H1134.82V34H1118.82V50H1142.82V58H1150.82V74H1142.82V82H1110.82V74H1102.82V66H1118.82V74H1134.82V58H1110.82V50H1102.82V34H1110.82V26Z" fill="white"/>
<rect x="456" y="184" width="589" height="121" fill="black"/>
<rect x="456" y="184" width="589" height="121" stroke="white" stroke-width="2"/>
<path d="M472.75 198.75H479.75V200.5H474.5V204H479.75V205.75H474.5V211H472.75V198.75ZM479.75 200.5H481.5V204H479.75V200.5ZM490.25 198.75H495.5V200.5H490.25V198.75ZM495.5 200.5H497.25V209.25H495.5V200.5ZM495.5 209.25V211H490.25V209.25H495.5ZM490.25 209.25H488.5V200.5H490.25V209.25ZM502.5 198.75H507.75V200.5H502.5V198.75ZM507.75 200.5H509.5V202.25H507.75V200.5ZM502.5 200.5V204H500.75V200.5H502.5ZM502.5 204H507.75V205.75H502.5V204ZM507.75 205.75H509.5V209.25H507.75V205.75ZM507.75 209.25V211H502.5V209.25H507.75ZM502.5 209.25H500.75V207.5H502.5V209.25ZM516.5 198.75H521.75V200.5H520V209.25H521.75V211H516.5V209.25H518.25V200.5H516.5V198.75ZM528.75 198.75H537.5V200.5H534V211H532.25V200.5H528.75V198.75ZM544.5 198.75H549.75V200.5H548V209.25H549.75V211H544.5V209.25H546.25V200.5H544.5V198.75ZM560.25 198.75H565.5V200.5H560.25V198.75ZM565.5 200.5H567.25V209.25H565.5V200.5ZM565.5 209.25V211H560.25V209.25H565.5ZM560.25 209.25H558.5V200.5H560.25V209.25ZM570.75 198.75H572.5V200.5H574.25V202.25H572.5V211H570.75V198.75ZM574.25 202.25H576V204H574.25V202.25ZM576 204H577.75V198.75H579.5V211H577.75V205.75H576V204ZM588.25 202.25H590V204H588.25V202.25ZM588.25 207.5H590V209.25H588.25V207.5ZM616.25 198.75H618V209.25H621.5V211H612.75V209.25H616.25V202.25H612.75V200.5H616.25V198.75ZM628.5 198.75H633.75V200.5H628.5V198.75ZM633.75 200.5H635.5V209.25H633.75V200.5ZM633.75 209.25V211H628.5V209.25H633.75ZM628.5 209.25H626.75V200.5H628.5V209.25ZM630.25 202.25H632V207.5H630.25V202.25ZM644.25 209.25H646V211H644.25V209.25ZM656.5 198.75H661.75V200.5H656.5V198.75ZM661.75 200.5H663.5V204H661.75V200.5ZM661.75 204V205.75H660V204H661.75ZM660 205.75V207.5H658.25V205.75H660ZM658.25 207.5V209.25H663.5V211H654.75V209.25H656.5V207.5H658.25ZM656.5 200.5V202.25H654.75V200.5H656.5ZM681 198.75H682.75V209.25H681V198.75ZM682.75 209.25H684.5V211H682.75V209.25ZM684.5 209.25V207.5H686.25V209.25H684.5ZM686.25 207.5V202.25H688V207.5H686.25ZM688 207.5H689.75V209.25H688V207.5ZM689.75 209.25H691.5V211H689.75V209.25ZM691.5 209.25V198.75H693.25V209.25H691.5ZM696.75 198.75H705.5V200.5H698.5V204H703.75V205.75H698.5V209.25H705.5V211H696.75V198.75ZM710.75 198.75H719.5V200.5H716V211H714.25V200.5H710.75V198.75ZM724.75 198.75H726.5V204H731.75V198.75H733.5V211H731.75V205.75H726.5V211H724.75V198.75ZM758 198.75H759.75V200.5H758V198.75ZM758 200.5V209.25H756.25V200.5H758ZM758 209.25H759.75V211H758V209.25ZM768.5 200.5H773.75V202.25H772V205.75H773.75V207.5H772V211H773.75V212.75H768.5V211H770.25V207.5H768.5V205.75H770.25V202.25H768.5V200.5ZM773.75 202.25H775.5V204H773.75V202.25ZM773.75 207.5H775.5V211H773.75V207.5ZM768.5 211H766.75V209.25H768.5V211ZM768.5 205.75H766.75V202.25H768.5V205.75ZM780.75 198.75H787.75V200.5H780.75V198.75ZM787.75 200.5H789.5V204H787.75V200.5ZM787.75 204V205.75H782.5V204H787.75ZM787.75 205.75H789.5V209.25H787.75V205.75ZM787.75 209.25V211H780.75V209.25H787.75ZM800 198.75H801.75V205.75H803.5V207.5H801.75V211H800V207.5H794.75V204H796.5V205.75H800V202.25H798.25V200.5H800V198.75ZM796.5 204V202.25H798.25V204H796.5ZM814 207.5H815.75V211H814V207.5ZM814 211V212.75H812.25V211H814ZM828 198.75H829.75V205.75H831.5V207.5H829.75V211H828V207.5H822.75V204H824.5V205.75H828V202.25H826.25V200.5H828V198.75ZM824.5 204V202.25H826.25V204H824.5ZM836.75 198.75H845.5V200.5H838.5V202.25H843.75V204H836.75V198.75ZM843.75 204H845.5V209.25H843.75V204ZM843.75 209.25V211H838.5V209.25H843.75ZM838.5 209.25H836.75V207.5H838.5V209.25ZM852.5 198.75H857.75V200.5H852.5V198.75ZM857.75 200.5H859.5V202.25H857.75V200.5ZM852.5 200.5V204H857.75V205.75H852.5V209.25H850.75V200.5H852.5ZM857.75 205.75H859.5V209.25H857.75V205.75ZM857.75 209.25V211H852.5V209.25H857.75ZM868.25 198.75H870V200.5H868.25V198.75ZM870 200.5H871.75V209.25H870V200.5ZM870 209.25V211H868.25V209.25H870Z" fill="white"/>
<line x1="471" y1="233.5" x2="1030" y2="233.5" stroke="#0439C7"/>
<path d="M473 267H483V269H475V273H481V275H475V279H483V281H473V267ZM491 267H497V269H491V267ZM497 269H499V281H497V277H491V281H489V269H491V275H497V269ZM505 267H513V269H507V273H513V277H511V275H507V281H505V267ZM513 269H515V273H513V269ZM513 277H515V281H513V277ZM521 267H523V269H525V271H523V281H521V267ZM525 271H527V273H525V271ZM527 273H529V267H531V281H529V275H527V273ZM539 267H545V269H543V279H545V281H539V279H541V269H539V267ZM553 267H555V269H557V271H555V281H553V267ZM557 271H559V273H557V271ZM559 273H561V267H563V281H561V275H559V273ZM571 267H579V269H571V267ZM571 269V279H569V269H571ZM571 279H577V275H575V273H579V281H571V279ZM587 267H593V269H587V267ZM593 269H595V271H593V269ZM587 269V273H585V269H587ZM587 273H593V275H587V273ZM593 275H595V279H593V275ZM593 279V281H587V279H593ZM587 279H585V277H587V279ZM605 271H607V273H605V271ZM605 277H607V279H605V277ZM635 267H641V269H635V267ZM641 269H643V273H641V269ZM641 273V275H639V273H641ZM639 275V277H637V275H639ZM637 277V279H643V281H633V279H635V277H637ZM635 269V271H633V269H635ZM649 267H657V269H649V267ZM657 269H659V273H657V269ZM657 273V275H651V273H657ZM657 275H659V279H657V275ZM657 279V281H649V279H657ZM671 267H673V275H675V277H673V281H671V277H665V273H667V275H671V271H669V269H671V267ZM667 273V271H669V273H667ZM685 279H687V281H685V279ZM697 267H707V269H699V271H705V273H697V267ZM705 273H707V279H705V273ZM705 279V281H699V279H705ZM699 279H697V277H699V279ZM719 267H721V275H723V277H721V281H719V277H713V273H715V275H719V271H717V269H719V267ZM715 273V271H717V273H715ZM745 267H747V279H745V267ZM747 279H753V281H747V279ZM753 279V267H755V279H753ZM763 267H769V269H763V267ZM769 269H771V271H769V269ZM763 269V273H761V269H763ZM763 273H769V275H763V273ZM769 275H771V279H769V275ZM769 279V281H763V279H769ZM763 279H761V277H763V279ZM775 267H785V269H779V279H785V281H777V269H775V267ZM785 269H787V279H785V269ZM795 267H801V269H795V267ZM801 269H803V271H801V269ZM795 269V279H793V269H795ZM795 279H801V281H795V279ZM801 279V277H803V279H801Z" fill="white"/>
<rect width="192" height="32" transform="translate(838 258)" fill="#0439C7"/>
<path d="M898.5 267H906.5V269H908.5V271H904.5V269H900.5V279H904.5V277H908.5V279H906.5V281H898.5V279H896.5V269H898.5V267ZM914.18 269H918.18V279H922.18V281H916.18V279H914.18V269ZM929.86 269H937.86V271H939.86V281H929.86V279H927.86V275H929.86V273H935.86V271H929.86V269ZM931.86 275V279H935.86V275H931.86ZM947.54 267H951.54V269H947.54V267ZM945.54 271H951.54V279H953.54V281H945.54V279H947.54V273H945.54V271ZM959.22 269H971.22V271H973.22V281H969.22V271H967.22V281H963.22V271H961.22V281H957.22V271H959.22V269Z" fill="white"/>
<path d="M419.6 398.5H422.1V406H419.6V398.5ZM422.1 406H424.6V408.5H422.1V406ZM424.6 408.5H427.1V416H424.6V408.5ZM427.1 408.5V406H429.6V408.5H427.1ZM429.6 406V398.5H432.1V406H429.6ZM444.2 398.5H451.7V401H444.2V398.5ZM451.7 401H454.2V413.5H451.7V401ZM451.7 413.5V416H444.2V413.5H451.7ZM444.2 413.5H441.7V401H444.2V413.5ZM458.8 398.5H461.3V413.5H458.8V398.5ZM461.3 413.5H468.8V416H461.3V413.5ZM468.8 413.5V398.5H471.3V413.5H468.8ZM478.4 398.5H488.4V401H480.9V406H488.4V411H485.9V408.5H480.9V416H478.4V398.5ZM488.4 401H490.9V406H488.4V401ZM488.4 411H490.9V416H488.4V411ZM517.6 398.5H530.1V401H520.1V406H527.6V408.5H520.1V413.5H530.1V416H517.6V398.5ZM539.7 398.5H547.2V401H539.7V398.5ZM547.2 401H549.7V416H547.2V411H539.7V416H537.2V401H539.7V408.5H547.2V401ZM556.8 398.5H566.8V401H559.3V406H566.8V411H564.3V408.5H559.3V416H556.8V398.5ZM566.8 401H569.3V406H566.8V401ZM566.8 411H569.3V416H566.8V411ZM576.4 398.5H578.9V401H581.4V403.5H578.9V416H576.4V398.5ZM581.4 403.5H583.9V406H581.4V403.5ZM583.9 406H586.4V398.5H588.9V416H586.4V408.5H583.9V406ZM598.5 398.5H606V401H603.5V413.5H606V416H598.5V413.5H601V401H598.5V398.5ZM615.6 398.5H618.1V401H620.6V403.5H618.1V416H615.6V398.5ZM620.6 403.5H623.1V406H620.6V403.5ZM623.1 406H625.6V398.5H628.1V416H625.6V408.5H623.1V406ZM637.7 398.5H647.7V401H637.7V398.5ZM637.7 401V413.5H635.2V401H637.7ZM637.7 413.5H645.2V408.5H642.7V406H647.7V416H637.7V413.5ZM657.3 398.5H664.8V401H657.3V398.5ZM664.8 401H667.3V403.5H664.8V401ZM657.3 401V406H654.8V401H657.3ZM657.3 406H664.8V408.5H657.3V406ZM664.8 408.5H667.3V413.5H664.8V408.5ZM664.8 413.5V416H657.3V413.5H664.8ZM657.3 413.5H654.8V411H657.3V413.5ZM696.5 398.5H704V401H696.5V398.5ZM704 401H706.5V416H704V411H696.5V416H694V401H696.5V408.5H704V401ZM716.1 398.5H723.6V401H716.1V398.5ZM723.6 401H726.1V403.5H723.6V401ZM716.1 401V413.5H713.6V401H716.1ZM716.1 413.5H723.6V416H716.1V413.5ZM723.6 413.5V411H726.1V413.5H723.6ZM733.2 398.5H743.2V401H735.7V406H743.2V411H740.7V408.5H735.7V416H733.2V398.5ZM743.2 401H745.7V406H743.2V401ZM743.2 411H745.7V416H743.2V411ZM752.8 398.5H755.3V413.5H752.8V398.5ZM755.3 413.5H762.8V416H755.3V413.5ZM762.8 413.5V398.5H765.3V413.5H762.8ZM772.4 398.5H784.9V401H774.9V406H782.4V408.5H774.9V413.5H784.9V416H772.4V398.5ZM814.1 398.5H821.6V401H814.1V398.5ZM821.6 401H824.1V416H821.6V411H814.1V416H811.6V401H814.1V408.5H821.6V401ZM833.7 398.5H841.2V401H833.7V398.5ZM841.2 401H843.7V403.5H841.2V401ZM833.7 401V406H831.2V401H833.7ZM833.7 406H841.2V408.5H833.7V406ZM841.2 408.5H843.7V413.5H841.2V408.5ZM841.2 413.5V416H833.7V413.5H841.2ZM833.7 413.5H831.2V411H833.7V413.5ZM870.4 398.5H875.4V413.5H880.4V398.5H885.4V413.5H882.9V416H872.9V413.5H870.4V398.5ZM892.5 398.5H902.5V401H905V403.5H900V401H895V406H902.5V408.5H905V413.5H902.5V416H892.5V413.5H890V411H895V413.5H900V408.5H892.5V406H890V401H892.5V398.5ZM907.1 398.5H922.1V401H924.6V413.5H922.1V416H909.6V401H907.1V398.5ZM914.6 401V413.5H919.6V401H914.6ZM931.7 398.5H941.7V401H944.2V403.5H939.2V401H934.2V413.5H939.2V411H944.2V413.5H941.7V416H931.7V413.5H929.2V401H931.7V398.5ZM975.9 398.5H978.4V401H975.9V398.5ZM975.9 401V413.5H973.4V401H975.9ZM975.9 413.5H978.4V416H975.9V413.5ZM988 398.5H990.5V406H988V398.5ZM990.5 406H993V408.5H990.5V406ZM993 408.5H995.5V416H993V408.5ZM995.5 408.5V406H998V408.5H995.5ZM998 406V398.5H1000.5V406H998ZM1010.1 398.5H1017.6V401H1010.1V398.5ZM1017.6 401H1020.1V416H1017.6V411H1010.1V416H1007.6V401H1010.1V408.5H1017.6V401ZM1027.2 398.5H1029.7V406H1027.2V398.5ZM1029.7 406H1032.2V408.5H1029.7V406ZM1032.2 408.5H1034.7V416H1032.2V408.5ZM1034.7 408.5V406H1037.2V408.5H1034.7ZM1037.2 406V398.5H1039.7V406H1037.2ZM1051.8 398.5H1054.3V401H1051.8V398.5ZM1054.3 401H1056.8V413.5H1054.3V401ZM1054.3 413.5V416H1051.8V413.5H1054.3ZM458.8 447.5H461.3V450H463.8V452.5H461.3V465H458.8V447.5ZM463.8 452.5H466.3V455H463.8V452.5ZM466.3 455H468.8V447.5H471.3V465H468.8V457.5H466.3V455ZM483.4 447.5H490.9V450H483.4V447.5ZM490.9 450H493.4V462.5H490.9V450ZM490.9 462.5V465H483.4V462.5H490.9ZM483.4 462.5H480.9V450H483.4V462.5ZM515.1 447.5H517.6V452.5H520.1V455H517.6V465H515.1V447.5ZM520.1 455H525.1V457.5H520.1V455ZM525.1 455V452.5H527.6V447.5H530.1V465H527.6V455H525.1ZM539.7 447.5H547.2V450H539.7V447.5ZM547.2 450H549.7V465H547.2V460H539.7V465H537.2V450H539.7V457.5H547.2V450ZM556.8 447.5H569.3V450H564.3V465H561.8V450H556.8V447.5ZM576.4 447.5H588.9V450H583.9V465H581.4V450H576.4V447.5ZM596 447.5H608.5V450H598.5V455H606V457.5H598.5V462.5H608.5V465H596V447.5ZM615.6 447.5H625.6V450H618.1V455H625.6V460H623.1V457.5H618.1V465H615.6V447.5ZM625.6 450H628.1V455H625.6V450ZM625.6 460H628.1V465H625.6V460ZM654.8 447.5H667.3V450H662.3V465H659.8V450H654.8V447.5ZM674.4 447.5H676.9V455H684.4V447.5H686.9V465H684.4V457.5H676.9V465H674.4V447.5ZM694 447.5H706.5V450H696.5V455H704V457.5H696.5V462.5H706.5V465H694V447.5ZM733.2 447.5H743.2V450H735.7V455H743.2V457.5H735.7V465H733.2V447.5ZM743.2 450H745.7V455H743.2V450ZM757.8 447.5H765.3V450H757.8V447.5ZM765.3 450H767.8V462.5H765.3V450ZM765.3 462.5V465H757.8V462.5H765.3ZM757.8 462.5H755.3V450H757.8V462.5ZM777.4 447.5H784.9V450H777.4V447.5ZM784.9 450H787.4V462.5H784.9V450ZM784.9 462.5V465H777.4V462.5H784.9ZM777.4 462.5H774.9V450H777.4V462.5ZM794.5 447.5H797V462.5H804.5V465H794.5V447.5ZM831.2 447.5H833.7V455H831.2V447.5ZM833.7 455H836.2V457.5H833.7V455ZM836.2 457.5H838.7V465H836.2V457.5ZM838.7 457.5V455H841.2V457.5H838.7ZM841.2 455V447.5H843.7V455H841.2ZM855.8 447.5H863.3V450H855.8V447.5ZM863.3 450H865.8V462.5H863.3V450ZM863.3 462.5V465H855.8V462.5H863.3ZM855.8 462.5H853.3V450H855.8V462.5ZM870.4 447.5H872.9V462.5H870.4V447.5ZM872.9 462.5H880.4V465H872.9V462.5ZM880.4 462.5V447.5H882.9V462.5H880.4ZM912.1 447.5H919.6V450H912.1V447.5ZM919.6 450H922.1V465H919.6V460H912.1V465H909.6V450H912.1V457.5H919.6V450ZM929.2 447.5H939.2V450H931.7V455H939.2V460H936.7V457.5H931.7V465H929.2V447.5ZM939.2 450H941.7V455H939.2V450ZM939.2 460H941.7V465H939.2V460ZM948.8 447.5H961.3V450H951.3V455H958.8V457.5H951.3V462.5H961.3V465H948.8V447.5ZM990.5 447.5H998V450H995.5V462.5H998V465H990.5V462.5H993V450H990.5V447.5ZM1007.6 447.5H1010.1V450H1012.6V452.5H1010.1V465H1007.6V447.5ZM1012.6 452.5H1015.1V455H1012.6V452.5ZM1015.1 455H1017.6V447.5H1020.1V465H1017.6V457.5H1015.1V455ZM1032.2 447.5H1034.7V460H1032.2V447.5ZM1032.2 462.5H1034.7V465H1032.2V462.5ZM478.4 505.5H480.9V508H483.4V510.5H480.9V523H478.4V505.5ZM483.4 510.5H485.9V513H483.4V510.5ZM485.9 513H488.4V505.5H490.9V523H488.4V515.5H485.9V513ZM498 505.5H510.5V508H500.5V513H508V515.5H500.5V520.5H510.5V523H498V505.5ZM517.6 505.5H520.1V515.5H517.6V505.5ZM520.1 515.5H522.6V520.5H520.1V515.5ZM522.6 520.5H525.1V523H522.6V520.5ZM525.1 520.5V515.5H527.6V520.5H525.1ZM527.6 515.5V505.5H530.1V515.5H527.6ZM537.2 505.5H549.7V508H539.7V513H547.2V515.5H539.7V520.5H549.7V523H537.2V505.5ZM556.8 505.5H566.8V508H559.3V513H566.8V518H564.3V515.5H559.3V523H556.8V505.5ZM566.8 508H569.3V513H566.8V508ZM566.8 518H569.3V523H566.8V518ZM593.5 505.5H596V520.5H593.5V505.5ZM596 520.5H598.5V523H596V520.5ZM598.5 520.5V518H601V520.5H598.5ZM601 518V510.5H603.5V518H601ZM603.5 518H606V520.5H603.5V518ZM606 520.5H608.5V523H606V520.5ZM608.5 520.5V505.5H611V520.5H608.5ZM620.6 505.5H628.1V508H620.6V505.5ZM628.1 508H630.6V520.5H628.1V508ZM628.1 520.5V523H620.6V520.5H628.1ZM620.6 520.5H618.1V508H620.6V520.5ZM635.2 505.5H645.2V508H637.7V513H645.2V518H642.7V515.5H637.7V523H635.2V505.5ZM645.2 508H647.7V513H645.2V508ZM645.2 518H647.7V523H645.2V518ZM654.8 505.5H664.8V508H657.3V513H664.8V518H662.3V515.5H657.3V523H654.8V505.5ZM664.8 508H667.3V513H664.8V508ZM664.8 518H667.3V523H664.8V518ZM674.4 505.5H676.9V513H674.4V505.5ZM676.9 513H679.4V515.5H676.9V513ZM679.4 515.5H681.9V523H679.4V515.5ZM681.9 515.5V513H684.4V515.5H681.9ZM684.4 513V505.5H686.9V513H684.4ZM716.1 505.5H723.6V508H716.1V505.5ZM723.6 508H726.1V523H723.6V518H716.1V523H713.6V508H716.1V515.5H723.6V508ZM733.2 505.5H743.2V508H735.7V513H743.2V515.5H735.7V520.5H743.2V523H733.2V505.5ZM743.2 508H745.7V513H743.2V508ZM743.2 515.5H745.7V520.5H743.2V515.5ZM757.8 505.5H765.3V508H757.8V505.5ZM765.3 508H767.8V520.5H765.3V508ZM765.3 520.5V523H757.8V520.5H765.3ZM757.8 520.5H755.3V508H757.8V520.5ZM772.4 505.5H774.9V520.5H772.4V505.5ZM774.9 520.5H782.4V523H774.9V520.5ZM782.4 520.5V505.5H784.9V520.5H782.4ZM792 505.5H804.5V508H799.5V523H797V508H792V505.5ZM833.7 505.5H836.2V520.5H843.7V523H833.7V505.5ZM855.8 505.5H863.3V508H855.8V505.5ZM863.3 508H865.8V520.5H863.3V508ZM863.3 520.5V523H855.8V520.5H863.3ZM855.8 520.5H853.3V508H855.8V520.5ZM872.9 505.5H880.4V508H872.9V505.5ZM880.4 508H882.9V510.5H880.4V508ZM872.9 508V513H870.4V508H872.9ZM872.9 513H880.4V515.5H872.9V513ZM880.4 515.5H882.9V520.5H880.4V515.5ZM880.4 520.5V523H872.9V520.5H880.4ZM872.9 520.5H870.4V518H872.9V520.5ZM892.5 505.5H900V508H897.5V520.5H900V523H892.5V520.5H895V508H892.5V505.5ZM909.6 505.5H912.1V508H914.6V510.5H912.1V523H909.6V505.5ZM914.6 510.5H917.1V513H914.6V510.5ZM917.1 513H919.6V505.5H922.1V523H919.6V515.5H917.1V513ZM931.7 505.5H941.7V508H931.7V505.5ZM931.7 508V520.5H929.2V508H931.7ZM931.7 520.5H939.2V515.5H936.7V513H941.7V523H931.7V520.5ZM970.9 505.5H978.4V508H975.9V520.5H978.4V523H970.9V520.5H973.4V508H970.9V505.5ZM988 505.5H1000.5V508H995.5V523H993V508H988V505.5ZM1012.6 505.5H1015.1V518H1012.6V505.5ZM1012.6 520.5H1015.1V523H1012.6V520.5Z" fill="white"/>
</g>
<defs>
<clipPath id="clip0_3315_1066">
<rect width="1500" height="500" fill="white"/>
</clipPath>
</defs>
</svg>
