<svg width="1025" height="546" viewBox="0 0 1025 546" fill="none" xmlns="http://www.w3.org/2000/svg">
<path d="M311.041 271.675H356.52V283.044H367.89V294.414H345.15V283.044H322.41V339.894H345.15V328.524H367.89V339.894H356.52V351.264H311.041V339.894H299.671V283.044H311.041V271.675ZM388.811 271.675H411.55V305.784H434.29V271.675H457.03V351.264H434.29V317.154H411.55V351.264H388.811V271.675ZM489.32 271.675H534.8V283.044H546.17V351.264H523.43V328.524H500.69V351.264H477.95V283.044H489.32V271.675ZM500.69 283.044V317.154H523.43V283.044H500.69ZM578.46 271.675H623.94V283.044H635.31V339.894H623.94V351.264H578.46V339.894H567.09V283.044H578.46V271.675ZM589.83 283.044V339.894H612.57V283.044H589.83ZM667.6 271.675H713.08V283.044H724.449V294.414H701.71V283.044H678.97V305.784H713.08V317.154H724.449V339.894H713.08V351.264H667.6V339.894H656.23V328.524H678.97V339.894H701.71V317.154H667.6V305.784H656.23V283.044H667.6V271.675Z" fill="#FE0000"/>
<path d="M348.244 233.779L364.85 233.779L381.448 233.779L398.054 233.779L414.651 233.779L431.248 233.779L447.855 233.779L464.452 233.779L481.059 233.779L497.656 233.779L509.314 233.779L514.263 233.779L525.911 233.779L542.517 233.779L559.115 233.779L575.721 233.779L592.318 233.779L608.925 233.779L625.522 233.779L642.129 233.779L658.726 233.779L675.323 233.779L691.93 233.779L691.93 217.173L675.323 217.173L675.323 200.576L675.323 183.978L658.726 183.978L658.726 167.372L642.129 167.372L642.129 150.775L625.522 150.775L608.925 150.775L592.318 150.775L575.721 150.775L559.115 150.775L559.115 167.372L542.517 167.372L542.517 183.978L525.911 183.978L525.911 200.576L525.911 217.173L514.263 217.173L509.314 217.173L497.656 217.173L497.656 200.576L497.656 183.978L481.059 183.978L481.059 167.372L464.452 167.372L464.452 150.775L447.855 150.775L431.248 150.775L414.651 150.775L398.054 150.775L381.447 150.775L381.447 167.372L364.85 167.372L364.85 183.978L348.244 183.978L348.244 200.576L348.244 217.173L331.647 217.173L331.647 233.779L348.244 233.779Z" fill="#FE0000"/>
<path d="M642.129 217.173L658.727 217.173L658.727 200.576L642.129 200.576L642.129 217.173Z" fill="#33E6BF"/>
<path d="M575.721 183.979L592.318 183.979L592.318 167.381L575.721 167.381L575.721 183.979Z" fill="#33E6BF"/>
<path d="M592.327 200.575L608.924 200.575L608.924 183.978L592.327 183.978L592.327 200.575Z" fill="#33E6BF"/>
<path d="M625.534 200.575L642.131 200.575L642.131 183.978L625.534 183.978L625.534 200.575Z" fill="#33E6BF"/>
<path d="M608.926 183.979L625.523 183.979L625.523 167.381L608.926 167.381L608.926 183.979Z" fill="#33E6BF"/>
<path d="M559.124 200.575L575.721 200.575L575.721 183.978L559.124 183.978L559.124 200.575Z" fill="#33E6BF"/>
<path d="M542.516 217.173L559.113 217.173L559.113 200.576L542.516 200.576L542.516 217.173Z" fill="#33E6BF"/>
<path d="M364.848 217.173L381.445 217.173L381.445 200.576L364.848 200.576L364.848 217.173Z" fill="#33E6BF"/>
<path d="M431.258 183.979L447.855 183.979L447.855 167.381L431.258 167.381L431.258 183.979Z" fill="#33E6BF"/>
<path d="M414.651 200.575L431.248 200.575L431.248 183.978L414.651 183.978L414.651 200.575Z" fill="#33E6BF"/>
<path d="M381.456 200.575L398.053 200.575L398.053 183.978L381.456 183.978L381.456 200.575Z" fill="#33E6BF"/>
<path d="M398.055 183.979L414.652 183.979L414.652 167.381L398.055 167.381L398.055 183.979Z" fill="#33E6BF"/>
<path d="M447.854 200.575L464.451 200.575L464.451 183.978L447.854 183.978L447.854 200.575Z" fill="#33E6BF"/>
<path d="M464.463 217.173L481.061 217.173L481.061 200.576L464.463 200.576L464.463 217.173Z" fill="#33E6BF"/>
</svg>
