<svg width="50" height="50" viewBox="0 0 50 50" fill="none" xmlns="http://www.w3.org/2000/svg">
<path d="M20.8849 14.3013H18.416V23.3539H20.8849V14.3013Z" fill="#F29DFF"/>
<path d="M31.5841 14.3013H29.1152V23.3539H31.5841V14.3013Z" fill="#F29DFF"/>
<path d="M29.1144 11.8325H20.8848V14.3014H29.1144V11.8325Z" fill="#F29DFF"/>
<path d="M29.1145 25.8228V28.2917H20.8849V25.8228H18.416V30.7606H31.5833V25.8228H29.1145Z" fill="#F29DFF"/>
<path d="M23.3536 23.354H20.8848V25.8229H23.3536V23.354Z" fill="#F29DFF"/>
<path d="M29.1134 23.354H26.6445V25.8229H29.1134V23.354Z" fill="#F29DFF"/>
<path d="M41.4594 6.07178H8.54102V8.54064H41.4594V6.07178Z" fill="#F29DFF"/>
<path d="M33.2289 38.9907V41.4597H16.7697V38.9907H14.3008V43.9285H35.6978V38.9907H33.2289Z" fill="#F29DFF"/>
<path d="M28.293 34.0527V38.9905H33.2307V36.5216H41.4604V34.0527H28.293Z" fill="#F29DFF"/>
<path d="M8.54113 8.54053H6.07227V34.0523H8.54113V8.54053Z" fill="#F29DFF"/>
<path d="M43.9298 8.54053H41.4609V34.0523H43.9298V8.54053Z" fill="#F29DFF"/>
<path d="M8.54102 34.0527V36.5216H16.7707V38.9905H21.7084V34.0527H8.54102Z" fill="#F29DFF"/>
</svg>
