<svg width="50" height="50" viewBox="0 0 50 50" fill="none" xmlns="http://www.w3.org/2000/svg">
<g clip-path="url(#clip0_3111_1444)">
<path d="M19.5655 31.522H16.3047V34.7828H19.5655V31.522Z" fill="#FFD911"/>
<path d="M33.6964 26.0869H30.4355V34.7825H33.6964V26.0869Z" fill="#FFD911"/>
<path d="M19.5655 15.2173H16.3047V22.826H19.5655V15.2173Z" fill="#FFD911"/>
<path d="M30.434 22.8262H19.5645V26.087H30.434V22.8262Z" fill="#FFD911"/>
<path d="M26.0861 11.9567V7.60889H22.8253V11.9567H19.5645V15.2176H30.434V11.9567H26.0861Z" fill="#FFD911"/>
<path d="M33.6964 15.2173H30.4355V18.4781H33.6964V15.2173Z" fill="#FFD911"/>
<path d="M19.5645 34.7827V38.0436H22.8253V42.3914H26.0861V38.0436H30.434V34.7827H19.5645Z" fill="#FFD911"/>
<path d="M9.78233 6.52197H6.52148V9.78281H9.78233V6.52197Z" fill="#FFD911"/>
<path d="M16.305 3.26074H9.7832V6.52158H16.305V3.26074Z" fill="#FFD911"/>
<path d="M33.696 0H16.3047V3.26084H33.696V0Z" fill="#FFD911"/>
<path d="M43.4796 6.52197H40.2188V9.78281H43.4796V6.52197Z" fill="#FFD911"/>
<path d="M40.2171 3.26074H33.6953V6.52158H40.2171V3.26074Z" fill="#FFD911"/>
<path d="M46.7394 9.78271H43.4785V16.3045H46.7394V9.78271Z" fill="#FFD911"/>
<path d="M49.9991 16.3042H46.7383V33.6955H49.9991V16.3042Z" fill="#FFD911"/>
<path d="M46.7394 33.6958H43.4785V40.2176H46.7394V33.6958Z" fill="#FFD911"/>
<path d="M3.26084 16.3047H0V33.696H3.26084V16.3047Z" fill="#FFD911"/>
<path d="M6.52256 9.78271H3.26172V16.3045H6.52256V9.78271Z" fill="#FFD911"/>
<path d="M6.52256 33.6958H3.26172V40.2176H6.52256V33.6958Z" fill="#FFD911"/>
<path d="M9.78233 40.2173H6.52148V43.4781H9.78233V40.2173Z" fill="#FFD911"/>
<path d="M33.696 46.7388H16.3047V49.9996H33.696V46.7388Z" fill="#FFD911"/>
<path d="M40.2171 43.478H33.6953V46.7389H40.2171V43.478Z" fill="#FFD911"/>
<path d="M16.305 43.478H9.7832V46.7389H16.305V43.478Z" fill="#FFD911"/>
<path d="M43.4776 40.2173H40.2168V43.4781H43.4776V40.2173Z" fill="#FFD911"/>
<rect x="9.79297" y="7.85693" width="2.85714" height="2.85714" fill="#FFD911"/>
<rect x="12.6504" y="10.7139" width="2.85714" height="2.85714" fill="#FFD911"/>
<rect x="15.5078" y="13.5713" width="2.85714" height="2.85714" fill="#FFD911"/>
<rect x="18.3652" y="16.4282" width="2.85714" height="2.85714" fill="#FFD911"/>
<rect x="21.2207" y="19.2856" width="2.85714" height="2.85714" fill="#FFD911"/>
<rect x="24.0781" y="22.1426" width="2.85714" height="2.85714" fill="#FFD911"/>
<rect x="26.9355" y="25" width="2.85714" height="2.85714" fill="#FFD911"/>
<rect x="29.793" y="27.8569" width="2.85714" height="2.85714" fill="#FFD911"/>
<rect x="32.6504" y="30.7139" width="2.85714" height="2.85715" fill="#FFD911"/>
<rect x="35.5078" y="33.5713" width="2.85714" height="2.85714" fill="#FFD911"/>
<rect x="38.3652" y="36.4282" width="2.85714" height="2.85714" fill="#FFD911"/>
<rect x="41.2207" y="39.2856" width="2.85714" height="2.85714" fill="#FFD911"/>
</g>
<defs>
<clipPath id="clip0_3111_1444">
<rect width="50" height="50" fill="white"/>
</clipPath>
</defs>
</svg>
