<svg width="50" height="50" viewBox="0 0 50 50" fill="none" xmlns="http://www.w3.org/2000/svg">
<g clip-path="url(#clip0_3111_1362)">
<path d="M33.696 33.6958H16.3047V36.9566H33.696V33.6958Z" fill="#FFD911"/>
<path d="M15.218 3.26074H9.7832V6.52158H15.218V3.26074Z" fill="#FFD911"/>
<path d="M9.78233 6.52197H6.52148V9.78281H9.78233V6.52197Z" fill="#FFD911"/>
<path d="M6.52256 9.78271H3.26172V15.2175H6.52256V9.78271Z" fill="#FFD911"/>
<path d="M6.52256 34.7827H3.26172V40.2175H6.52256V34.7827Z" fill="#FFD911"/>
<path d="M9.78233 40.2173H6.52148V43.4781H9.78233V40.2173Z" fill="#FFD911"/>
<path d="M15.218 43.478H9.7832V46.7389H15.218V43.478Z" fill="#FFD911"/>
<path d="M34.782 0H15.2168V3.26084H34.782V0Z" fill="#FFD911"/>
<path d="M34.782 46.7393H15.2168V50.0001H34.782V46.7393Z" fill="#FFD911"/>
<path d="M3.26084 15.2173H0V34.7825H3.26084V15.2173Z" fill="#FFD911"/>
<path d="M40.218 3.26074H34.7832V6.52158H40.218V3.26074Z" fill="#FFD911"/>
<path d="M43.4776 6.52197H40.2168V9.78281H43.4776V6.52197Z" fill="#FFD911"/>
<path d="M46.7394 9.78271H43.4785V15.2175H46.7394V9.78271Z" fill="#FFD911"/>
<path d="M46.7394 34.7827H43.4785V40.2175H46.7394V34.7827Z" fill="#FFD911"/>
<path d="M43.4776 40.2173H40.2168V43.4781H43.4776V40.2173Z" fill="#FFD911"/>
<path d="M40.218 43.478H34.7832V46.7389H40.218V43.478Z" fill="#FFD911"/>
<path d="M49.9991 15.2173H46.7383V34.7825H49.9991V15.2173Z" fill="#FFD911"/>
<path d="M18.4776 22.8262H15.2168V26.087H18.4776V22.8262Z" fill="#FFD911"/>
<path d="M15.2179 19.5654H11.957V22.8263H15.2179V19.5654Z" fill="#FFD911"/>
<path d="M15.2179 26.0869H11.957V29.3478H15.2179V26.0869Z" fill="#FFD911"/>
<path d="M11.9562 16.3042H8.69531V19.565H11.9562V16.3042Z" fill="#FFD911"/>
<path d="M11.9562 29.3477H8.69531V32.6085H11.9562V29.3477Z" fill="#FFD911"/>
<path d="M33.6964 22.8262H30.4355V26.087H33.6964V22.8262Z" fill="#FFD911"/>
<path d="M36.9562 19.5654H33.6953V22.8263H36.9562V19.5654Z" fill="#FFD911"/>
<path d="M36.9562 26.0869H33.6953V29.3478H36.9562V26.0869Z" fill="#FFD911"/>
<path d="M40.2179 16.3042H36.957V19.565H40.2179V16.3042Z" fill="#FFD911"/>
<path d="M40.2179 29.3477H36.957V32.6085H40.2179V29.3477Z" fill="#FFD911"/>
</g>
<defs>
<clipPath id="clip0_3111_1362">
<rect width="50" height="50" fill="white"/>
</clipPath>
</defs>
</svg>
