<svg width="50" height="50" viewBox="0 0 50 50" fill="none" xmlns="http://www.w3.org/2000/svg">
<g clip-path="url(#clip0_3111_1551)">
<path d="M35.64 33.6918L40.8681 28.6466L42.1294 29.9536C40.4913 31.5344 38.5395 33.418 36.9013 34.9988L35.64 33.6918ZM32.9803 38.7827L31.719 37.4757C31.0654 38.1063 29.7584 39.3676 29.1049 39.9983L30.3662 41.3053L32.9803 38.7827ZM32.8431 46.4877C31.2622 44.8495 29.3787 42.8977 27.7979 41.2596L29.1049 39.9983L27.8436 38.6913C27.1901 39.3219 25.8831 40.5832 25.2296 41.2139L31.536 47.749L32.8431 46.4877ZM25.2296 41.2139L23.9683 39.9068L22.6612 41.1681L23.9225 42.4751L25.2296 41.2139ZM22.7527 36.0315L24.0597 34.7702L22.7984 33.4631L21.4914 34.7244L22.7527 36.0315ZM22.7984 33.4631L25.4125 30.9405L24.1512 29.6335C23.4976 30.2642 21.5371 32.1561 21.5371 32.1561L22.7984 33.4631ZM22.9356 25.7582L21.6286 27.0195L24.1512 29.6335L25.4582 28.3722L26.7652 27.1109L25.5039 25.8039L24.1969 27.0652C23.7218 26.5729 23.2509 26.0849 22.9356 25.7582ZM16.3547 34.633L15.0477 35.8943L21.3542 42.4294L22.6612 41.1681C20.6389 39.0725 18.377 36.7286 16.3547 34.633ZM16.4005 32.0647L15.0934 33.326L16.3547 34.633L17.6618 33.3717L16.4005 32.0647ZM6.44724 13.9035C6.44724 13.9035 4.4867 15.7954 3.83319 16.4261L5.09449 17.7331L7.70854 15.2105L6.44724 13.9035ZM20.3673 25.7124L17.8447 23.0984L20.4587 20.5758L19.1974 19.2688L16.5834 21.7914L9.01557 13.9492L7.70854 15.2105L19.0602 26.9737C18.4067 27.6044 17.0997 28.8657 16.4462 29.4963C15.8155 28.8428 5.72514 18.3866 5.09449 17.7331L3.78746 18.9944L16.4005 32.0647L21.6286 27.0195L20.3673 25.7124ZM27.0396 11.701L24.4255 14.2236L25.6868 15.5306L28.3009 13.008L27.0396 11.701ZM30.732 20.7587C29.1554 19.1249 27.2971 17.1992 25.6868 15.5306L24.3798 16.7919L29.425 22.02L30.732 20.7587ZM26.8109 24.5426L21.7657 19.3145L20.4587 20.5758L25.5039 25.8039L26.8109 24.5426ZM23.1185 15.4849L20.5044 18.0075L21.7657 19.3145L24.3798 16.7919L23.1185 15.4849ZM28.0722 25.8496L30.6863 23.327L29.425 22.02L26.8109 24.5426L28.0722 25.8496ZM30.732 20.7587L31.9933 22.0657L34.6074 19.5431L40.9139 26.0783L39.6068 27.3396L40.8681 28.6466L42.1752 27.3853L47.2204 32.6134L48.5274 31.3521C40.5854 23.1222 37.5541 19.981 29.6079 11.7467L28.3009 13.008L33.3461 18.2361L30.732 20.7587Z" fill="#F29DFF"/>
</g>
<defs>
<clipPath id="clip0_3111_1551">
<rect width="50" height="50" fill="white"/>
</clipPath>
</defs>
</svg>
