<svg width="50" height="50" viewBox="0 0 50 50" fill="none" xmlns="http://www.w3.org/2000/svg">
<path d="M47.5898 39.2412H49.1523V40.8037H47.5898V42.3662H46.0273V40.8037H5.40234V39.2412H6.96484V18.9287H8.52734V39.2412H16.3398V18.9287H17.9023V39.2412H19.4648V25.1787H21.0273V39.2412H28.8398V25.1787H30.4023V39.2412H31.9648V31.4287H33.5273V39.2412H41.3398V31.4287H42.9023V39.2412H46.0273V37.6787H47.5898V39.2412ZM44.4648 43.9287H46.0273V42.3662H44.4648V43.9287ZM44.4648 36.1162V37.6787H46.0273V36.1162H44.4648ZM0.714844 11.1162H2.27734V9.55371H0.714844V11.1162ZM6.96484 9.55371V7.99121H5.40234V6.42871H3.83984V7.99121H2.27734V9.55371H3.83984V39.2412H5.40234V9.55371H6.96484ZM8.52734 11.1162V9.55371H6.96484V11.1162H8.52734ZM41.3398 29.8662H33.5273V31.4287H41.3398V29.8662ZM28.8398 23.6162H21.0273V25.1787H28.8398V23.6162ZM16.3398 17.3662H8.52734V18.9287H16.3398V17.3662ZM11.6523 6.42871V7.99121H13.2148V6.42871H11.6523ZM13.2148 7.99121V9.55371H14.7773V7.99121H13.2148ZM14.7773 9.55371V11.1162H16.3398V9.55371H14.7773ZM16.3398 11.1162V12.6787H17.9023V11.1162H16.3398ZM17.9023 12.6787V14.2412H19.4648V12.6787H17.9023ZM19.4648 14.2412V15.8037H21.0273V14.2412H19.4648ZM21.0273 17.3662H22.5898V15.8037H21.0273V17.3662ZM22.5898 15.8037H24.1523V14.2412H22.5898V15.8037ZM24.1523 14.2412H25.7148V12.6787H24.1523V14.2412ZM25.7148 11.1162V12.6787H27.2773V11.1162H25.7148ZM27.2773 12.6787V14.2412H28.8398V12.6787H27.2773ZM28.8398 14.2412V15.8037H30.4023V14.2412H28.8398ZM30.4023 15.8037V17.3662H31.9648V15.8037H30.4023ZM31.9648 17.3662V18.9287H33.5273V17.3662H31.9648ZM35.0898 20.4912V18.9287H33.5273V20.4912H35.0898ZM36.6523 22.0537V20.4912H35.0898V22.0537H36.6523ZM39.7773 20.4912H38.2148V23.6162H35.0898V25.1787H39.7773V20.4912Z" fill="#FFD911"/>
</svg>
