<svg width="50" height="50" viewBox="0 0 50 50" fill="none" xmlns="http://www.w3.org/2000/svg">
<path d="M35.9375 9.375V10.9375H23.4375V9.375H25V7.8125H26.5625V9.375H29.6875V7.8125H31.25V9.375H34.375V7.8125H35.9375V9.375ZM31.25 6.25V7.8125H32.8125H34.375V6.25V4.6875H32.8125V6.25H31.25ZM23.4375 6.25V4.6875H21.875V6.25V7.8125H23.4375H25V6.25H23.4375ZM32.8125 3.125H23.4375V4.6875H32.8125V3.125ZM35.9375 10.9375V12.5H37.5V10.9375H35.9375ZM39.0625 12.5H37.5V17.1875H39.0625V12.5ZM37.5 17.1875H35.9375V20.3125H37.5V17.1875ZM35.9375 20.3125H34.375V23.4375H35.9375V20.3125ZM21.875 25V26.5625H23.4375V25H32.8125V26.5625H34.375V25V23.4375H20.3125V25H21.875ZM20.3125 9.375H21.875V7.8125H20.3125V9.375ZM4.6875 10.9375H20.3125V9.375H4.6875V10.9375ZM4.6875 20.3125V21.875H18.75V20.3125H4.6875ZM20.3125 23.4375V21.875H18.75V23.4375H20.3125ZM28.125 28.125V26.5625H26.5625V28.125H25V29.6875H26.5625V32.8125H25V34.375H26.5625V39.0625H25V40.625H26.5625V42.1875H28.125V40.625H29.6875V39.0625H28.125V35.9375H29.6875V34.375H28.125V29.6875H29.6875V28.125H28.125ZM29.6875 31.25H31.25V29.6875H29.6875V31.25ZM23.4375 29.6875V32.8125H25V29.6875H23.4375ZM23.4375 37.5V39.0625H25V37.5H23.4375ZM31.25 39.0625V35.9375H29.6875V39.0625H31.25ZM21.875 26.5625H20.3125V28.125H21.875V26.5625ZM20.3125 28.125H18.75V31.25H20.3125V28.125ZM18.75 31.25H17.1875V34.375H18.75V31.25ZM15.625 34.375V39.0625H17.1875V34.375H15.625ZM17.1875 39.0625V42.1875H18.75V39.0625H17.1875ZM18.75 42.1875V43.75H20.3125V42.1875H18.75ZM20.3125 43.75V45.3125H23.4375V43.75H20.3125ZM35.9375 28.125V26.5625H34.375V28.125H35.9375ZM37.5 31.25V28.125H35.9375V31.25H37.5ZM39.0625 34.375V31.25H37.5V34.375H39.0625ZM40.625 39.0625V34.375H39.0625V39.0625H40.625ZM37.5 42.1875H39.0625V39.0625H37.5V42.1875ZM35.9375 43.75H37.5V42.1875H35.9375V43.75ZM32.8125 45.3125H35.9375V43.75H32.8125V45.3125ZM23.4375 46.875H32.8125V45.3125H23.4375V46.875Z" fill="#F29DFF"/>
</svg>
