<svg width="3732" height="2024" viewBox="0 0 3732 2024" fill="none" xmlns="http://www.w3.org/2000/svg">
<rect width="3732" height="2024" fill="#0E1416"/>
<path d="M1314.71 1026.14C1339.01 1026.14 1358.55 1027.28 1376.2 1029.73C1391.05 1031.79 1403.02 1035.17 1412.79 1040.1C1417.45 1042.43 1418.08 1044.95 1418.31 1045.88C1419.06 1048.9 1418.93 1053.04 1418.78 1057.43C1418.73 1059.05 1418.66 1060.73 1418.65 1062.43L1417.91 1157.75C1417.87 1162.87 1417.85 1167.99 1417.82 1173.11C1417.77 1183.28 1417.72 1193.81 1417.54 1204.12C1417.39 1213.03 1416.69 1223.27 1412.59 1231.56C1408.77 1239.27 1401.4 1241.56 1395.87 1242.12C1391.63 1242.55 1386.88 1242.75 1381.34 1242.75C1376.12 1242.75 1370.68 1242.57 1365.42 1242.39C1360.81 1242.24 1356.04 1242.08 1351.32 1242.03L1258.51 1241.18H1257.67C1257.23 1241.17 1256.78 1241.17 1256.34 1241.17C1254.21 1241.17 1252.04 1241.21 1249.94 1241.25C1247.87 1241.29 1245.73 1241.33 1243.67 1241.33C1236.69 1241.33 1228.92 1240.88 1224.23 1237.51C1218.12 1233.12 1215.35 1225.58 1214.1 1220.01C1211.94 1210.4 1212.06 1200.08 1212.19 1189.13L1212.22 1186.69C1212.38 1171.63 1212.71 1156.32 1213.19 1141.19C1214.13 1111.77 1215.71 1081.65 1217.9 1051.59C1222.1 1050.7 1225.8 1047.92 1227.74 1043.84C1234.07 1030.54 1252.14 1027.37 1277.33 1026.72C1289.27 1026.41 1301.99 1026.11 1314.71 1026.11M1314.71 1012.02C1302.08 1012.02 1289.46 1012.31 1276.97 1012.64C1254.61 1013.21 1225.68 1015.3 1214.97 1037.81C1214.29 1037.64 1213.58 1037.56 1212.86 1037.56C1208.83 1037.56 1204.59 1040.15 1204.2 1045.31C1201.8 1077.09 1200.08 1108.92 1199.07 1140.77C1198.58 1156.04 1198.26 1171.3 1198.09 1186.57C1197.96 1198.8 1197.61 1211.12 1200.31 1223.14C1202.59 1233.25 1207.42 1242.85 1215.98 1249C1223.8 1254.61 1233.84 1255.47 1243.67 1255.47C1248 1255.47 1252.29 1255.31 1256.34 1255.31C1256.74 1255.31 1257.15 1255.31 1257.54 1255.31C1288.75 1255.59 1319.98 1255.87 1351.19 1256.16C1361.09 1256.25 1371.26 1256.87 1381.33 1256.87C1386.69 1256.87 1392.03 1256.69 1397.29 1256.16C1409.34 1254.94 1419.76 1248.87 1425.24 1237.8C1430.35 1227.48 1431.47 1215.71 1431.65 1204.34C1431.92 1188.84 1431.89 1173.34 1432.02 1157.84C1432.27 1126.07 1432.51 1094.3 1432.76 1062.52C1432.81 1055.97 1433.6 1048.87 1432 1042.45C1430.26 1035.46 1425.41 1030.62 1419.12 1027.46C1406.39 1021.06 1392.15 1017.67 1378.12 1015.72C1357.25 1012.83 1335.94 1012 1314.69 1012L1314.71 1012.02Z" fill="white"/>
<path d="M1245.16 1103.88C1247.54 1115.34 1249.27 1126.92 1256.89 1136.24C1259.73 1139.71 1266.77 1138.87 1268.61 1134.74C1273.38 1124.03 1277.68 1113.14 1281.52 1102.08C1288.83 1113.77 1295.86 1125.63 1301.93 1138.03C1304.62 1143.51 1314.52 1142.5 1315.58 1136.25C1320 1109.88 1324.18 1083.48 1328.12 1057.05C1328.71 1053.07 1327.12 1049.05 1322.91 1047.89C1319.39 1046.93 1314.32 1049.09 1313.73 1053.08C1310.82 1072.57 1307.78 1092.04 1304.61 1111.49C1298.64 1101.12 1292.21 1091.02 1285.75 1080.93C1282.3 1075.53 1273.99 1076.46 1272.11 1082.71C1269.15 1092.58 1265.81 1102.31 1262.08 1111.91C1260.91 1106.75 1259.87 1101.55 1258.81 1096.36C1256.43 1084.78 1254.17 1073.18 1252.02 1061.56C1250.28 1052.16 1235.89 1056.14 1237.63 1065.51C1240 1078.32 1242.5 1091.1 1245.15 1103.87L1245.16 1103.88Z" fill="white"/>
<path d="M1391.35 1126.16C1379.07 1126.92 1367.11 1125.63 1355.38 1122.27L1356.88 1104.89C1365.17 1106.15 1373.52 1106.72 1381.91 1106.46C1391.47 1106.16 1391.51 1091.26 1381.91 1091.55C1373.93 1091.8 1366.03 1091.36 1358.17 1090.09L1359.31 1076.92C1370.35 1076.9 1381.38 1077.21 1392.4 1077.85C1401.98 1078.42 1401.93 1063.51 1392.4 1062.95C1379.11 1062.16 1365.81 1061.86 1352.49 1062.05C1348.22 1062.11 1345.4 1065.43 1345.05 1069.5C1343.38 1088.75 1341.72 1107.99 1340.05 1127.25C1339.74 1130.91 1341.74 1133.17 1344.37 1134C1344.99 1134.45 1345.7 1134.83 1346.53 1135.11C1360.92 1139.98 1376.17 1142 1391.34 1141.05C1400.85 1140.46 1400.93 1125.55 1391.34 1126.15L1391.35 1126.16Z" fill="white"/>
<path d="M1315.19 1154.85C1311.46 1168.99 1306.92 1182.88 1301.56 1196.46C1298.29 1184.5 1295.03 1172.54 1291.76 1160.58C1289.81 1153.42 1279.45 1153.6 1277.41 1160.58C1274.83 1169.35 1271.99 1178.04 1268.92 1186.65C1265.38 1176.02 1261.85 1165.39 1258.31 1154.77C1255.3 1145.73 1240.92 1149.61 1243.95 1158.72C1249.71 1176.03 1255.48 1193.34 1261.24 1210.65C1263.71 1218.05 1272.88 1217.3 1275.6 1210.65C1278.58 1203.36 1281.37 1196.02 1283.98 1188.61C1286.92 1199.38 1289.86 1210.13 1292.8 1220.9C1294.36 1226.65 1303.63 1228.66 1306.41 1222.67C1315.97 1202.08 1323.77 1180.74 1329.55 1158.79C1331.98 1149.53 1317.63 1145.57 1315.2 1154.84L1315.19 1154.85Z" fill="white"/>
<path d="M1386.35 1152.45C1374.01 1151.74 1361.77 1150.31 1349.6 1148.12C1346.91 1147.64 1344.16 1148.31 1342.32 1150.1C1340.73 1151.29 1339.57 1153.12 1339.36 1155.6C1337.93 1172.58 1336.86 1189.7 1336.84 1206.76C1336.84 1210.41 1337.47 1213.98 1340.52 1216.36C1343.94 1219.02 1348.2 1218.64 1352.28 1218.64C1361.19 1218.64 1370.1 1218.64 1379.01 1218.64C1388.6 1218.64 1388.61 1203.73 1379.01 1203.73C1370 1203.73 1360.82 1204.18 1351.77 1203.9C1351.77 1203.36 1351.79 1202.82 1351.8 1202.28C1351.85 1199.88 1351.9 1197.48 1351.98 1195.09C1351.98 1194.9 1351.99 1194.7 1352 1194.51H1371.68C1381.26 1194.51 1381.27 1179.6 1371.68 1179.6H1352.62C1352.89 1174.34 1353.24 1169.09 1353.63 1163.85C1364.47 1165.55 1375.39 1166.75 1386.35 1167.38C1395.92 1167.94 1395.89 1153.03 1386.35 1152.47V1152.45Z" fill="white"/>
<path d="M1232.52 714.194C1232.52 723.078 1232.21 734.872 1231.6 749.577L1231.14 779.445C1231.14 808.548 1233.29 832.902 1237.58 852.508C1243.71 880.079 1252.91 901.37 1265.18 916.381C1276.52 929.553 1290.48 936.14 1307.04 936.14C1319.92 936.14 1331.42 932.31 1341.54 924.652C1351.66 916.687 1359.48 906.884 1365 895.243C1374.2 876.25 1378.8 852.814 1378.8 824.937C1378.8 808.088 1377.72 788.176 1375.58 765.2C1373.74 739.468 1372.82 720.168 1372.82 707.302C1372.82 700.562 1376.8 696.273 1384.78 694.435C1392.75 692.291 1401.03 691.219 1409.61 691.219C1412.68 691.219 1416.21 693.21 1420.19 697.192C1424.18 701.175 1426.17 705.464 1426.17 710.059C1426.17 719.249 1425.71 727.98 1424.79 736.251C1424.18 745.441 1423.87 751.874 1423.87 755.551C1423.87 767.192 1424.49 783.428 1425.71 804.259C1426.02 809.467 1426.33 815.747 1426.63 823.099C1426.94 830.451 1427.09 838.876 1427.09 848.372C1427.09 869.204 1422.03 890.035 1411.91 910.866C1402.1 931.391 1388.3 948.393 1370.52 961.872C1352.73 975.045 1332.64 981.632 1310.26 981.632C1275.91 981.632 1249.08 970.603 1229.76 948.547C1210.44 926.184 1197.25 897.387 1190.2 862.158C1186.21 841.939 1183.61 820.802 1182.38 798.745C1181.46 776.688 1181 747.126 1181 710.059C1181 705.157 1183.3 700.562 1187.9 696.273C1192.81 691.984 1198.02 689.84 1203.54 689.84C1222.86 689.84 1232.52 697.958 1232.52 714.194Z" fill="white"/>
<path d="M1491.07 820.802C1488.31 820.802 1485.71 821.108 1483.25 821.721C1480.8 822.027 1478.35 822.18 1475.89 822.18C1472.52 822.18 1469.3 820.648 1466.23 817.585C1463.47 814.522 1462.09 811.765 1462.09 809.314C1462.09 801.349 1466.08 795.222 1474.05 790.933C1482.03 786.338 1490.15 784.04 1498.43 784.04C1505.48 784.04 1512.69 786.491 1520.05 791.393C1527.72 795.988 1533.39 801.962 1537.07 809.314C1545.04 799.817 1554.86 792.924 1566.51 788.636C1578.16 784.347 1590.28 782.202 1602.85 782.202C1616.96 782.202 1629.99 786.644 1641.95 795.528C1654.21 804.412 1663.87 815.747 1670.93 829.532C1677.98 843.011 1681.51 856.491 1681.51 869.97C1681.51 883.142 1680.13 894.937 1677.37 905.352C1674.61 915.462 1669.7 925.724 1662.65 936.14C1654.67 947.168 1643.94 956.205 1630.45 963.251C1617.26 970.297 1601.47 973.82 1583.07 973.82C1578.16 973.82 1572.18 972.594 1565.13 970.144C1558.08 967.387 1552.25 964.476 1547.65 961.413C1545.5 982.244 1544.43 1000.32 1544.43 1015.64C1544.43 1024.83 1544.89 1033.56 1545.81 1041.83C1546.42 1051.63 1546.73 1058.68 1546.73 1062.97C1563.18 1145.68 1544.43 1074.61 1539.83 1077.67C1535.23 1081.04 1530.17 1082.72 1524.65 1082.72C1513.61 1082.72 1506.25 1079.66 1502.57 1073.53C1499.2 1067.71 1497.51 1059.29 1497.51 1048.26C1498.74 1021.92 1500.27 997.561 1502.11 975.198C1503.95 947.628 1504.87 905.046 1504.87 847.453C1504.87 841.939 1503.8 836.119 1501.65 829.992C1499.51 823.865 1495.98 820.802 1491.07 820.802ZM1549.49 915.921C1551.02 921.742 1555.32 926.643 1562.37 930.625C1569.73 934.302 1576.32 936.14 1582.15 936.14C1599.63 936.14 1612.66 931.391 1621.25 921.895C1627.69 915.155 1631.83 908.569 1633.67 902.136C1635.82 895.702 1636.89 885.44 1636.89 871.348C1636.89 860.32 1634.74 851.13 1630.45 843.777C1626.16 836.119 1620.94 830.605 1614.81 827.235C1608.68 823.559 1602.85 821.721 1597.33 821.721C1584.76 821.721 1574.48 825.55 1566.51 833.208C1558.84 840.561 1553.94 850.67 1551.79 863.536C1550.26 873.646 1549.49 891.107 1549.49 915.921Z" fill="white"/>
<path d="M1852.76 881.457C1855.21 882.989 1859.97 885.899 1867.02 890.188C1874.38 894.171 1879.29 898.919 1881.74 904.433C1884.19 909.947 1885.42 917.606 1885.42 927.409C1885.42 938.437 1882.2 948.24 1875.76 956.818C1869.32 965.089 1861.04 971.522 1850.92 976.117C1843.87 979.181 1836.2 981.019 1827.92 981.632C1819.95 982.244 1810.29 982.551 1798.94 982.551C1792.81 982.551 1784.83 981.632 1775.02 979.794C1765.52 977.955 1758.92 976.271 1755.24 974.739C1745.43 969.225 1737.15 962.791 1730.4 955.439C1723.66 948.087 1720.28 940.582 1720.28 932.923C1720.28 926.796 1722.28 921.895 1726.26 918.219C1730.25 914.543 1735.46 912.704 1741.9 912.704C1745.28 912.704 1748.5 913.623 1751.56 915.462C1754.94 916.993 1757.24 918.831 1758.46 920.976C1761.84 928.941 1767.51 934.914 1775.48 938.897C1783.45 942.879 1791.58 944.87 1799.86 944.87C1828.99 944.87 1843.56 939.663 1843.56 929.247C1843.56 926.49 1842.79 924.345 1841.26 922.814C1840.03 920.976 1838.19 919.138 1835.74 917.3C1831.75 914.543 1826.08 911.632 1818.72 908.569C1811.67 905.505 1805.38 903.208 1799.86 901.676C1787.29 898.919 1775.02 894.783 1763.06 889.269C1752.02 883.755 1742.98 876.556 1735.92 867.672C1728.87 858.482 1725.34 847.3 1725.34 834.128C1725.34 826.163 1728.26 818.351 1734.08 810.692C1740.22 802.727 1747.27 796.754 1755.24 792.771C1760.76 790.627 1769.81 788.329 1782.38 785.879C1794.95 783.428 1803.54 782.202 1808.14 782.202C1815.19 782.202 1822.86 782.968 1831.14 784.5C1839.42 785.725 1845.71 787.87 1850 790.933C1858.28 795.835 1865.03 801.043 1870.24 806.557C1875.45 811.765 1878.06 817.738 1878.06 824.478C1878.06 827.848 1877.29 831.524 1875.76 835.506C1874.23 839.182 1872.39 841.48 1870.24 842.399C1865.64 844.543 1860.27 845.615 1854.14 845.615C1851.38 845.615 1849.08 844.85 1847.24 843.318C1845.71 841.786 1843.56 839.335 1840.8 835.966C1837.43 830.758 1834.21 827.694 1831.14 826.775C1827.46 825.856 1822.09 824.784 1815.04 823.559C1807.99 822.027 1803.23 821.261 1800.78 821.261C1793.11 821.261 1785.75 822.793 1778.7 825.856C1771.96 828.92 1768.58 833.055 1768.58 838.263C1768.58 844.39 1773.64 849.598 1783.76 853.887C1790.2 856.95 1797.25 859.554 1804.92 861.698C1812.89 863.843 1817.8 865.221 1819.64 865.834C1823.93 866.753 1829.45 868.897 1836.2 872.267C1843.25 875.637 1848.77 878.7 1852.76 881.457Z" fill="white"/>
<path d="M1952.26 685.704C1962.99 686.623 1972.35 689.534 1980.32 694.435C1988.29 699.03 1992.28 706.076 1992.28 715.573C1992.28 722.619 1988.91 728.286 1982.16 732.575C1975.72 736.557 1967.9 738.549 1958.7 738.549C1949.81 738.549 1943.67 736.251 1940.3 731.656C1936.93 727.061 1935.24 722.312 1935.24 717.411C1935.24 708.221 1936.16 700.562 1938 694.435C1940.15 688.308 1944.9 685.398 1952.26 685.704ZM1989.06 902.595C1989.06 914.543 1989.37 925.877 1989.98 936.599C1990.9 947.015 1991.97 957.584 1993.2 968.306C1992.89 971.369 1990.59 974.586 1986.3 977.955C1982.01 981.019 1978.17 982.551 1974.8 982.551C1968.97 982.551 1962.99 981.478 1956.86 979.334C1951.03 976.883 1947.51 973.973 1946.28 970.603C1944.44 960.8 1943.52 952.069 1943.52 944.411C1943.52 919.291 1942.75 891.107 1941.22 859.86C1939.99 832.289 1939.38 812.99 1939.38 801.962C1939.38 796.447 1942.14 791.699 1947.66 787.717C1953.18 783.734 1959.01 781.743 1965.14 781.743C1974.03 781.743 1980.17 783.734 1983.54 787.717C1987.22 791.699 1989.06 797.979 1989.06 806.557V902.595Z" fill="white"/>
<path d="M2230.03 693.057C2230.03 696.12 2229.57 699.949 2228.65 704.545C2228.34 706.383 2228.04 708.374 2227.73 710.518C2227.42 712.663 2227.12 715.267 2226.81 718.33C2224.05 745.901 2222.67 780.058 2222.67 820.802C2222.67 859.401 2224.36 888.044 2227.73 906.731C2231.1 925.418 2236.32 936.599 2243.37 940.275L2252.11 943.951C2256.71 945.483 2260.08 947.168 2262.23 949.006C2264.68 950.844 2265.91 953.908 2265.91 958.196C2265.91 964.323 2262.69 969.684 2256.25 974.279C2249.81 978.568 2242.76 980.713 2235.09 980.713C2227.12 980.713 2219.3 977.496 2211.63 971.063C2203.96 964.323 2197.68 955.899 2192.77 945.789C2187.56 956.818 2178.36 965.702 2165.17 972.441C2151.98 978.874 2139.41 982.091 2127.45 982.091C2116.72 982.091 2107.37 980.713 2099.39 977.955C2091.42 974.892 2083.14 970.297 2074.55 964.17C2064.13 956.818 2056.15 947.474 2050.63 936.14C2045.42 924.805 2042.81 912.398 2042.81 898.919C2042.81 885.44 2045.42 871.195 2050.63 856.184C2055.85 840.867 2061.83 828.307 2068.57 818.504C2076.55 807.169 2087.13 798.745 2100.31 793.231C2113.5 787.41 2127.15 784.5 2141.25 784.5C2149.22 784.5 2156.12 786.032 2161.95 789.095C2167.78 791.852 2173.76 795.835 2179.89 801.042C2179.89 785.725 2179.58 772.859 2178.97 762.443C2178.66 759.686 2178.51 756.47 2178.51 752.794C2178.51 726.448 2180.66 705.617 2184.95 690.3C2188.32 677.433 2196.45 671 2209.33 671C2216.38 671 2221.6 672.532 2224.97 675.595C2228.34 678.659 2230.03 684.479 2230.03 693.057ZM2087.43 898C2087.43 913.623 2092.49 925.571 2102.61 933.842C2107.21 938.131 2111.05 941.041 2114.11 942.573C2117.18 944.105 2121.01 944.87 2125.61 944.87C2134.51 944.87 2142.94 942.42 2150.91 937.518C2159.19 932.31 2165.63 925.571 2170.23 917.3C2175.14 909.028 2177.59 900.144 2177.59 890.648L2177.13 845.156C2170.69 837.804 2164.71 832.749 2159.19 829.992C2153.98 826.928 2148.46 825.397 2142.63 825.397C2123.01 825.397 2109.51 832.902 2102.15 847.913C2098.17 854.959 2094.64 862.924 2091.57 871.808C2088.81 880.692 2087.43 889.422 2087.43 898Z" fill="white"/>
<path d="M2292.1 875.484C2292.1 856.797 2296.24 841.327 2304.52 829.073C2312.8 816.513 2324.3 804.719 2339.02 793.69C2343.32 790.627 2350.52 788.023 2360.64 785.879C2370.76 783.428 2379.65 782.202 2387.32 782.202C2396.52 782.202 2406.18 784.194 2416.3 788.176C2426.73 791.852 2435.16 796.141 2441.6 801.042C2452.95 809.314 2460.77 818.964 2465.06 829.992C2469.35 840.714 2471.5 853.58 2471.5 868.591C2471.5 875.024 2467.82 881.304 2460.46 887.431C2453.41 893.252 2445.74 896.162 2437.46 896.162L2419.98 895.702C2411.09 895.702 2398.36 896.009 2381.8 896.621L2372.14 897.081C2365.39 897.694 2360.33 898 2356.96 898C2352.05 898 2345.31 897.387 2336.72 896.162C2337.95 910.56 2343.31 921.895 2352.82 930.166C2362.33 938.131 2372.6 942.113 2383.64 942.113C2402.96 942.113 2416.45 938.284 2424.12 930.625C2430.56 926.03 2434.85 923.12 2437 921.895C2439.15 920.669 2442.52 920.057 2447.12 920.057C2452.03 920.057 2456.32 922.354 2460 926.949C2463.68 931.545 2465.52 936.14 2465.52 940.735C2465.52 945.943 2462.3 951.304 2455.86 956.818C2449.73 962.026 2441.29 967.54 2430.56 973.36C2424.73 975.811 2416.76 977.955 2406.64 979.794C2396.52 981.632 2388.09 982.551 2381.34 982.551C2370.61 982.551 2358.65 979.487 2345.46 973.36C2332.28 966.927 2322.46 959.881 2316.02 952.223C2309.58 944.564 2303.91 933.689 2299 919.597C2294.4 905.505 2292.1 890.801 2292.1 875.484ZM2383.64 863.077C2405.41 863.077 2421.36 862.311 2431.48 860.779C2430.87 851.895 2428.11 844.696 2423.2 839.182C2418.29 833.362 2411.55 828.46 2402.96 824.478C2400.2 823.252 2397.75 822.333 2395.6 821.721C2393.45 821.108 2391 820.802 2388.24 820.802C2374.13 820.802 2362.17 824.631 2352.36 832.289C2342.86 839.948 2337.18 849.751 2335.34 861.698C2350.67 862.617 2366.77 863.077 2383.64 863.077Z" fill="white"/>
<path d="M2475.1 1350.16C2433.4 1350.16 2400.43 1344.34 2376.2 1332.7C2351.67 1321.37 2333.12 1308.65 2320.55 1294.56C2310.43 1282.92 2302.15 1269.44 2295.71 1254.12C2289.27 1239.11 2286.05 1221.04 2286.05 1199.9C2286.05 1184.28 2289.57 1167.89 2296.63 1150.73C2303.68 1133.88 2312.88 1120.25 2324.23 1109.84C2336.19 1098.5 2347.53 1089.31 2358.26 1082.27C2368.69 1075.22 2382.95 1069.4 2401.04 1064.8C2418.83 1060.51 2441.52 1058.37 2469.12 1058.37C2489.97 1058.37 2508.83 1060.67 2525.7 1065.26C2542.57 1070.16 2551 1078.28 2551 1089.62C2551 1094.21 2549.01 1097.74 2545.02 1100.19C2540.73 1102.94 2536.13 1104.32 2531.22 1104.32C2528.46 1104.32 2526.62 1104.17 2525.7 1103.86C2523.55 1124.08 2522.48 1145.52 2522.48 1168.19C2522.48 1193.62 2523.09 1214.61 2524.32 1231.15C2525.55 1248 2527.23 1264.69 2529.38 1281.23C2529.69 1283.38 2530.45 1289.35 2531.68 1299.16C2532.6 1308.96 2533.06 1318.91 2533.06 1329.02C2533.06 1335.46 2529.84 1340.82 2523.4 1345.11C2516.96 1349.7 2510.37 1352 2503.62 1352C2499.63 1352 2494.27 1351.69 2487.52 1351.08C2482 1350.47 2477.86 1350.16 2475.1 1350.16ZM2481.08 1101.56C2473.72 1100.34 2464.06 1099.73 2452.1 1099.73C2431.86 1099.73 2412.7 1103.86 2394.6 1112.13C2376.51 1120.71 2361.94 1132.51 2350.9 1147.52C2339.87 1162.83 2334.35 1180.45 2334.35 1200.36C2334.35 1221.19 2338.03 1238.96 2345.38 1253.66C2352.74 1268.37 2364.09 1280.47 2379.42 1289.97C2390.77 1297.01 2404.72 1302.07 2421.28 1305.13C2437.84 1308.5 2457.78 1310.18 2481.08 1310.18C2481.08 1302.83 2480.62 1293.64 2479.7 1282.61C2479.7 1278.94 2479.39 1272.5 2478.78 1263.31C2476.94 1227.78 2476.02 1199.13 2476.02 1177.38C2476.02 1145.83 2477.71 1120.56 2481.08 1101.56Z" fill="white"/>
<path d="M2062.9 1206.33C2060.45 1202.05 2058.45 1195.77 2056.92 1187.49C2055.39 1179.53 2054.62 1172.33 2054.62 1165.9C2054.62 1153.95 2057.23 1136.95 2062.44 1114.89C2083.6 1076.29 2114.88 1056.99 2156.28 1056.99C2171.61 1056.99 2187.25 1062.05 2203.2 1072.16C2219.14 1082.27 2230.18 1093.91 2236.32 1107.08C2244.6 1133.42 2248.74 1150.12 2248.74 1157.17C2248.74 1169.42 2246.13 1182.44 2240.92 1196.22C2235.4 1210.01 2228.5 1221.96 2220.22 1232.07C2215 1239.11 2205.65 1245.09 2192.16 1249.99C2178.67 1255.2 2166.4 1257.8 2155.36 1257.8C2133.89 1257.8 2115.65 1253.66 2100.62 1245.39C2085.59 1237.43 2073.02 1224.41 2062.9 1206.33ZM2102.92 1132.35C2101.39 1136.33 2100.62 1146.6 2100.62 1163.14C2100.62 1172.02 2102.31 1180.75 2105.68 1189.33C2108.75 1197.91 2113.35 1205.26 2119.48 1211.39C2120.09 1212 2121.78 1212.92 2124.54 1214.15C2127.3 1215.68 2131.13 1217.06 2136.04 1218.28C2140.64 1219.81 2146.01 1220.58 2152.14 1220.58C2169.31 1220.58 2181.89 1213.69 2189.86 1199.9C2197.83 1186.12 2201.82 1170.49 2201.82 1153.03C2201.82 1149.97 2201.05 1144.15 2199.52 1135.57C2197.68 1126.99 2196.14 1121.63 2194.92 1119.49C2194 1117.34 2191.7 1114.28 2188.02 1110.3C2184.03 1106.62 2179.28 1103.25 2173.76 1100.19C2167.93 1097.43 2161.95 1096.05 2155.82 1096.05C2142.02 1096.05 2130.98 1099.27 2122.7 1105.7C2114.42 1112.44 2107.83 1121.32 2102.92 1132.35Z" fill="white"/>
<path d="M1797.16 1168.19C1795.32 1174.93 1793.32 1184.12 1791.18 1195.77C1788.11 1209.55 1785.66 1219.97 1783.82 1227.01C1781.98 1234.06 1779.52 1240.03 1776.46 1244.93C1773.08 1250.45 1770.17 1254.12 1767.72 1255.96C1764.96 1257.8 1762.04 1258.72 1758.98 1258.72C1743.03 1258.72 1735.06 1252.59 1735.06 1240.34C1735.06 1234.21 1737.51 1222.72 1742.42 1205.87C1758.67 1156.86 1770.32 1118.87 1777.38 1091.92C1780.44 1080.58 1785.04 1071.85 1791.18 1065.72C1797.31 1059.9 1805.59 1056.99 1816.02 1056.99C1821.23 1056.99 1826.6 1059.44 1832.12 1064.34C1837.33 1069.55 1841.62 1075.83 1845 1083.18L1850.06 1095.59C1858.64 1117.34 1865.08 1134.04 1869.38 1145.68C1873.36 1157.63 1875.97 1168.35 1877.2 1177.84L1881.34 1163.14C1888.7 1136.79 1896.36 1112.29 1904.33 1089.62C1908.32 1077.98 1913.23 1069.55 1919.05 1064.34C1924.88 1059.44 1932.39 1056.99 1941.59 1056.99C1947.11 1056.99 1952.02 1058.22 1956.31 1060.67C1960.3 1063.12 1964.13 1067.25 1967.81 1073.07C1972.72 1081.04 1977.47 1091.76 1982.07 1105.24C1986.37 1118.72 1992.65 1139.7 2000.93 1168.19C2004.92 1180.45 2008.6 1193.31 2011.97 1206.79C2015.35 1220.58 2017.03 1230.23 2017.03 1235.74C2017.03 1242.18 2015.35 1247.23 2011.97 1250.91C2008.6 1254.58 2003.69 1256.42 1997.25 1256.42C1988.97 1256.42 1983.15 1254.74 1979.77 1251.37C1976.4 1248.3 1973.33 1243.55 1970.57 1237.12C1969.04 1226.09 1965.67 1210.47 1960.45 1190.25L1950.33 1147.06C1949.72 1143.69 1947.88 1136.64 1944.81 1125.92L1941.13 1112.59C1934.39 1126.99 1928.71 1140.78 1924.11 1153.95C1919.51 1167.12 1914.45 1183.36 1908.93 1202.66C1908.63 1203.88 1905.56 1214.45 1899.73 1234.36C1895.75 1240.8 1892.22 1245.55 1889.16 1248.61C1886.09 1251.98 1883.02 1253.66 1879.96 1253.66C1873.82 1253.66 1868.61 1251.67 1864.32 1247.69C1859.72 1244.01 1856.34 1239.42 1854.2 1233.9C1850.52 1221.96 1847.3 1211.08 1844.54 1201.28C1843.31 1197.3 1840.55 1187.65 1836.26 1172.33C1831.66 1157.32 1827.52 1144.61 1823.84 1134.19C1820.16 1123.77 1817.09 1116.42 1814.64 1112.13L1797.16 1168.19Z" fill="white"/>
<path d="M1700.25 1220.58C1702.71 1222.42 1704.7 1224.26 1706.23 1226.09C1707.77 1228.24 1708.53 1231.91 1708.53 1237.12C1708.53 1242.94 1706.54 1247.38 1702.55 1250.45C1698.26 1253.82 1693.35 1255.5 1687.83 1255.5C1677.1 1255.5 1667.9 1252.75 1660.24 1247.23C1652.26 1241.72 1646.44 1234.06 1642.76 1224.26C1636.01 1236.82 1627.42 1245.39 1617 1249.99C1606.57 1254.89 1592.16 1257.34 1573.76 1257.34C1566.4 1257.34 1558.88 1255.04 1551.22 1250.45C1543.24 1246.16 1536.04 1240.8 1529.6 1234.36C1524.39 1227.62 1519.94 1219.2 1516.26 1209.09C1512.58 1199.29 1510.74 1190.4 1510.74 1182.44C1510.74 1177.84 1511.05 1170.34 1511.66 1159.92C1512.27 1148.89 1512.58 1140.16 1512.58 1133.73C1512.58 1112.29 1508.44 1099.11 1500.16 1094.21C1498.93 1093.6 1496.63 1092.83 1493.26 1091.92C1489.89 1091 1487.43 1090.08 1485.9 1089.16C1484.06 1088.24 1483.14 1086.86 1483.14 1085.02C1482.83 1077.67 1485.59 1071.54 1491.42 1066.64C1496.94 1062.05 1503.69 1059.75 1511.66 1059.75C1523.62 1059.75 1532.97 1062.97 1539.72 1069.4C1546.46 1075.83 1551.22 1085.64 1553.98 1098.81C1555.51 1103.71 1556.28 1110.91 1556.28 1120.4C1556.28 1125.61 1555.97 1134.04 1555.36 1145.68C1554.44 1154.87 1553.98 1164.67 1553.98 1175.09C1553.98 1185.81 1557.04 1195.15 1563.18 1203.12C1569.31 1211.39 1577.74 1215.52 1588.48 1215.52C1594.92 1215.52 1601.66 1213.53 1608.72 1209.55C1615.77 1205.87 1620.68 1201.28 1623.44 1195.77C1628.04 1186.27 1631.1 1176.62 1632.64 1166.82C1636.32 1147.82 1638.16 1129.6 1638.16 1112.13C1638.16 1107.84 1637.85 1099.57 1637.24 1087.32C1637.24 1086.4 1637.24 1084.1 1637.24 1080.43C1637.24 1077.06 1637.7 1073.84 1638.62 1070.78C1639.23 1067.71 1640.46 1064.96 1642.3 1062.51C1643.52 1061.28 1645.82 1060.06 1649.2 1058.83C1652.57 1057.6 1655.48 1056.99 1657.94 1056.99C1662.23 1056.99 1667.6 1058.83 1674.03 1062.51C1680.47 1066.18 1684.31 1070.32 1685.53 1074.91L1685.99 1081.35C1685.99 1083.8 1685.69 1087.47 1685.07 1092.37C1681.39 1113.82 1679.55 1132.51 1679.55 1148.44C1679.55 1155.48 1679.71 1160.84 1680.01 1164.52L1680.47 1185.66C1680.47 1192.09 1682.31 1198.22 1685.99 1204.04C1689.67 1210.16 1694.43 1215.68 1700.25 1220.58Z" fill="white"/>
<path d="M2086.4 1347.88C2085.38 1345.96 2084.73 1343.83 2084.46 1341.5C2084.18 1339.09 2084.05 1335.8 2084.05 1331.61C2084.05 1327.63 2083.5 1324.16 2082.41 1321.21C2081.32 1318.26 2079.06 1316.78 2075.65 1316.78C2074.35 1316.78 2073.06 1317.19 2071.76 1318.02C2070.53 1318.77 2069.61 1319.73 2069 1320.9C2068.04 1322.76 2067.39 1324.78 2067.05 1326.98C2066.71 1329.11 2066.54 1331.58 2066.54 1334.39C2066.54 1336.18 2066.64 1338 2066.84 1339.85C2066.84 1340.4 2066.88 1341.29 2066.95 1342.53C2067.08 1343.69 2067.15 1344.76 2067.15 1345.72C2067.15 1349.84 2065.72 1351.9 2062.85 1351.9C2059.1 1351.9 2057.12 1349.91 2056.91 1345.92C2056.91 1343.11 2056.95 1341.6 2057.01 1341.39V1336.97C2057.01 1334.49 2056.91 1332.09 2056.71 1329.76C2056.5 1327.42 2056.26 1325.67 2055.99 1324.51C2055.38 1322.24 2054.56 1320.49 2053.53 1319.25C2052.58 1318.02 2051.04 1317.4 2048.92 1317.4C2045.92 1317.4 2043.5 1318.7 2041.65 1321.31C2040.36 1323.37 2039.5 1325.88 2039.09 1328.83C2038.68 1332.61 2038.38 1335.59 2038.17 1337.79C2038.04 1339.92 2037.97 1342.39 2037.97 1345.2C2037.97 1347.19 2037.63 1348.81 2036.94 1350.04C2036.33 1351.28 2035.13 1351.9 2033.36 1351.9C2032.06 1351.9 2030.7 1351.55 2029.26 1350.87C2027.9 1350.11 2027.22 1349.12 2027.22 1347.88C2027.22 1346.58 2027.35 1345.27 2027.63 1343.97C2028.24 1340.05 2028.55 1333.05 2028.55 1322.96C2028.55 1321.31 2028.14 1319.73 2027.32 1318.22C2026.57 1316.65 2025.65 1315.86 2024.55 1315.86C2024.28 1315.86 2023.77 1315.99 2023.02 1316.27C2022.33 1316.54 2021.82 1316.68 2021.48 1316.68C2020.59 1316.68 2019.77 1316.27 2019.02 1315.44C2018.34 1314.62 2018 1313.93 2018 1313.38C2018 1311.67 2018.82 1310.23 2020.46 1309.06C2022.16 1307.82 2023.94 1307.21 2025.78 1307.21C2028.31 1307.21 2030.46 1308 2032.23 1309.57C2034.01 1311.15 2035.37 1313.35 2036.33 1316.16C2037.9 1313.42 2040.02 1311.22 2042.68 1309.57C2045.34 1307.86 2048.31 1307 2051.59 1307C2053.64 1307 2055.27 1307.27 2056.5 1307.82C2057.8 1308.3 2058.86 1309.03 2059.68 1309.99C2060.5 1310.88 2061.55 1312.25 2062.85 1314.11C2064.56 1311.91 2066.74 1310.19 2069.4 1308.96C2072.14 1307.72 2074.93 1307.1 2077.8 1307.1C2081.21 1307.1 2084.29 1308.51 2087.02 1311.32C2089.75 1314.07 2091.59 1317.26 2092.55 1320.9C2093.02 1322.76 2093.26 1326.32 2093.26 1331.61L2093.67 1337.58C2094.01 1341.15 2095.18 1343.32 2097.15 1344.07C2099.48 1344.76 2100.64 1345.48 2100.64 1346.23C2100.64 1347.88 2100.23 1349.08 2099.41 1349.84C2098.79 1350.25 2097.94 1350.7 2096.85 1351.18C2095.76 1351.66 2094.9 1351.9 2094.29 1351.9C2090.6 1351.9 2087.97 1350.56 2086.4 1347.88Z" fill="white"/>
<path d="M2107.07 1329.65C2107.07 1327.05 2107.55 1324.44 2108.5 1321.83C2109.46 1319.15 2110.72 1316.71 2112.29 1314.52C2113.86 1312.32 2116.35 1310.54 2119.77 1309.16C2123.18 1307.72 2126.22 1307 2128.88 1307C2131.61 1307 2134.38 1307.38 2137.17 1308.13C2140.04 1308.89 2142.02 1310.05 2143.11 1311.63C2145.64 1315.2 2146.9 1318.7 2146.9 1322.14C2146.9 1323.99 2146.49 1325.57 2145.67 1326.87C2144.92 1328.18 2143.83 1329.59 2142.4 1331.1C2141.24 1332.33 2139.39 1333.16 2136.87 1333.57C2134.41 1333.98 2131.95 1334.19 2129.49 1334.19C2127.92 1334.19 2126.01 1334.05 2123.76 1333.77C2121.51 1333.43 2119.32 1333.02 2117.21 1332.54C2117.34 1333.91 2117.68 1335.25 2118.23 1336.55C2118.78 1337.86 2119.43 1338.85 2120.18 1339.54C2121.54 1340.84 2122.94 1341.67 2124.37 1342.01C2125.88 1342.35 2127.79 1342.53 2130.11 1342.53C2132.57 1342.53 2134.85 1342.11 2136.97 1341.29C2138.68 1340.67 2140.08 1340.36 2141.17 1340.36C2142.47 1340.36 2143.46 1340.78 2144.14 1341.6C2144.82 1342.35 2145.16 1343.35 2145.16 1344.59C2145.16 1346.3 2144.17 1347.71 2142.19 1348.81C2140.21 1349.91 2137.93 1350.73 2135.33 1351.28C2132.81 1351.76 2130.76 1352 2129.19 1352C2125.98 1352 2122.87 1351.42 2119.87 1350.25C2116.87 1349.08 2114.37 1347.43 2112.39 1345.31C2110.76 1343.38 2109.46 1341.08 2108.5 1338.41C2107.55 1335.66 2107.07 1332.74 2107.07 1329.65ZM2129.39 1315.75C2127.89 1315.75 2126.39 1316.06 2124.89 1316.68C2123.39 1317.23 2122.16 1318.02 2121.2 1319.05C2119.97 1320.35 2119.12 1321.42 2118.64 1322.24C2118.23 1323 2117.96 1324.06 2117.82 1325.43C2119.53 1325.98 2123.08 1326.26 2128.47 1326.26C2131.41 1326.26 2133.66 1325.81 2135.23 1324.92C2136.87 1324.03 2137.69 1322.86 2137.69 1321.42C2137.69 1319.97 2136.8 1318.67 2135.02 1317.5C2133.25 1316.34 2131.37 1315.75 2129.39 1315.75Z" fill="white"/>
<path d="M2156.59 1316.06C2154.88 1314.62 2154.03 1312.94 2154.03 1311.02C2154.03 1310.05 2154.5 1309.2 2155.46 1308.44C2156.42 1307.62 2157.58 1307.21 2158.94 1307.21C2161.4 1307.21 2163.41 1307.86 2164.98 1309.16C2166.55 1310.47 2167.92 1312.35 2169.08 1314.83C2170.51 1312.15 2172.32 1310.19 2174.51 1308.96C2176.76 1307.65 2179.59 1307 2183.01 1307C2185.05 1307 2186.69 1307.27 2187.92 1307.82C2189.22 1308.3 2190.28 1309.03 2191.09 1309.99C2191.91 1310.88 2192.94 1312.25 2194.17 1314.11C2195.94 1311.91 2198.16 1310.19 2200.82 1308.96C2203.55 1307.72 2206.35 1307.1 2209.22 1307.1C2212.56 1307.1 2215.6 1308.51 2218.33 1311.32C2221.13 1314.14 2223.01 1317.33 2223.96 1320.9C2224.31 1322.41 2224.55 1325.98 2224.68 1331.61L2225.09 1337.58C2225.43 1341.22 2226.59 1343.38 2228.57 1344.07C2229.53 1344.35 2230.31 1344.69 2230.93 1345.1C2231.61 1345.44 2231.95 1345.82 2231.95 1346.23C2232.09 1347.88 2231.71 1349.08 2230.83 1349.84C2230.21 1350.25 2229.36 1350.7 2228.27 1351.18C2227.17 1351.66 2226.32 1351.9 2225.71 1351.9C2222.02 1351.9 2219.39 1350.56 2217.82 1347.88C2216.8 1346.1 2216.15 1344.07 2215.88 1341.81C2215.6 1339.47 2215.47 1336.31 2215.47 1332.33C2215.47 1328.08 2214.95 1324.44 2213.93 1321.42C2212.91 1318.33 2210.58 1316.78 2206.97 1316.78C2205.67 1316.78 2204.37 1317.19 2203.08 1318.02C2201.85 1318.77 2200.96 1319.73 2200.41 1320.9C2199.46 1322.76 2198.81 1324.78 2198.47 1326.98C2198.13 1329.11 2197.96 1331.58 2197.96 1334.39C2197.96 1336.18 2198.06 1338 2198.26 1339.85C2198.26 1340.4 2198.3 1341.29 2198.37 1342.53C2198.5 1343.69 2198.57 1344.76 2198.57 1345.72C2198.57 1347.43 2198.23 1348.91 2197.55 1350.15C2196.93 1351.31 2195.84 1351.9 2194.27 1351.9C2190.51 1351.9 2188.53 1349.91 2188.33 1345.92C2188.33 1343.11 2188.36 1341.6 2188.43 1341.39V1336.97C2188.43 1334.49 2188.33 1332.09 2188.13 1329.76C2187.92 1327.42 2187.68 1325.67 2187.41 1324.51C2186.79 1322.24 2185.97 1320.49 2184.95 1319.25C2183.93 1318.02 2182.36 1317.4 2180.24 1317.4C2178.81 1317.4 2177.48 1317.74 2176.25 1318.43C2175.02 1319.12 2173.96 1320.08 2173.07 1321.31C2171.78 1323.37 2170.92 1325.88 2170.51 1328.83C2170.1 1332.61 2169.8 1335.59 2169.59 1337.79C2169.45 1339.92 2169.39 1342.39 2169.39 1345.2C2169.39 1347.19 2169.04 1348.81 2168.36 1350.04C2167.75 1351.28 2166.55 1351.9 2164.78 1351.9C2163.48 1351.9 2162.12 1351.55 2160.68 1350.87C2159.32 1350.11 2158.63 1349.12 2158.63 1347.88C2158.63 1346.58 2158.77 1345.27 2159.04 1343.97C2159.66 1340.05 2159.97 1333.4 2159.97 1323.99C2159.97 1322.48 2159.62 1321 2158.94 1319.56C2158.33 1318.05 2157.54 1316.89 2156.59 1316.06Z" fill="white"/>
<path d="M2238.06 1327.9C2238.06 1323.72 2238.99 1320.25 2240.83 1317.5C2242.67 1314.69 2245.23 1312.05 2248.51 1309.57C2249.46 1308.89 2251.07 1308.3 2253.32 1307.82C2255.57 1307.27 2257.55 1307 2259.26 1307C2261.31 1307 2263.46 1307.45 2265.71 1308.34C2268.03 1309.16 2269.91 1310.12 2271.34 1311.22C2273.87 1313.08 2275.61 1315.24 2276.57 1317.71C2277.52 1320.11 2278 1323 2278 1326.36C2278 1327.8 2277.18 1329.21 2275.54 1330.58C2273.97 1331.89 2272.27 1332.54 2270.42 1332.54L2266.53 1332.43C2264.55 1332.43 2261.72 1332.5 2258.03 1332.64L2255.88 1332.74C2254.38 1332.88 2253.25 1332.95 2252.5 1332.95C2251.41 1332.95 2249.91 1332.81 2248 1332.54C2248.27 1335.76 2249.46 1338.3 2251.58 1340.16C2253.7 1341.94 2255.98 1342.84 2258.44 1342.84C2262.74 1342.84 2265.75 1341.98 2267.45 1340.26C2268.89 1339.23 2269.84 1338.58 2270.32 1338.3C2270.8 1338.03 2271.55 1337.89 2272.57 1337.89C2273.67 1337.89 2274.62 1338.41 2275.44 1339.44C2276.26 1340.47 2276.67 1341.5 2276.67 1342.53C2276.67 1343.69 2275.95 1344.89 2274.52 1346.13C2273.15 1347.3 2271.28 1348.53 2268.89 1349.84C2267.59 1350.39 2265.81 1350.87 2263.56 1351.28C2261.31 1351.69 2259.43 1351.9 2257.93 1351.9C2255.54 1351.9 2252.88 1351.21 2249.94 1349.84C2247.01 1348.4 2244.82 1346.82 2243.39 1345.1C2241.96 1343.38 2240.69 1340.95 2239.6 1337.79C2238.58 1334.63 2238.06 1331.34 2238.06 1327.9ZM2258.44 1325.12C2263.29 1325.12 2266.84 1324.95 2269.09 1324.61C2268.95 1322.62 2268.34 1321 2267.25 1319.77C2266.16 1318.46 2264.65 1317.37 2262.74 1316.47C2262.13 1316.2 2261.58 1315.99 2261.1 1315.86C2260.63 1315.72 2260.08 1315.65 2259.47 1315.65C2256.33 1315.65 2253.66 1316.51 2251.48 1318.22C2249.36 1319.94 2248.1 1322.14 2247.69 1324.81C2251.1 1325.02 2254.69 1325.12 2258.44 1325.12Z" fill="white"/>
</svg>
