<svg width="3732" height="2051" viewBox="0 0 3732 2051" fill="none" xmlns="http://www.w3.org/2000/svg">
<g clip-path="url(#clip0_8318_7027)">
<rect width="3732" height="2051" fill="#03FFCF"/>
<path d="M1217.22 1075.07C1247.87 1075.07 1272.52 1076.53 1294.78 1079.66C1313.52 1082.29 1328.61 1086.62 1340.94 1092.91C1346.82 1095.9 1347.61 1099.11 1347.9 1100.31C1348.84 1104.17 1348.68 1109.46 1348.49 1115.07C1348.42 1117.15 1348.35 1119.29 1348.33 1121.46L1347.39 1243.3C1347.34 1249.85 1347.31 1256.39 1347.28 1262.93C1347.21 1275.94 1347.15 1289.4 1346.93 1302.57C1346.74 1313.97 1345.85 1327.05 1340.68 1337.65C1335.87 1347.51 1326.57 1350.43 1319.59 1351.14C1314.24 1351.7 1308.25 1351.95 1301.26 1351.95C1294.68 1351.95 1287.82 1351.72 1281.18 1351.49C1275.37 1351.3 1269.35 1351.09 1263.4 1351.03L1146.33 1349.94H1145.27C1144.71 1349.93 1144.15 1349.93 1143.59 1349.93C1140.9 1349.93 1138.17 1349.98 1135.52 1350.03C1132.91 1350.08 1130.21 1350.14 1127.61 1350.14C1118.8 1350.14 1109 1349.56 1103.08 1345.25C1095.38 1339.64 1091.88 1330 1090.3 1322.89C1087.58 1310.6 1087.73 1297.4 1087.9 1283.42L1087.94 1280.3C1088.14 1261.04 1088.56 1241.47 1089.16 1222.14C1090.34 1184.52 1092.34 1146.03 1095.1 1107.61C1100.4 1106.47 1105.07 1102.91 1107.51 1097.69C1115.5 1080.69 1138.29 1076.64 1170.07 1075.82C1185.13 1075.42 1201.18 1075.03 1217.22 1075.03M1217.22 1057.03C1201.28 1057.03 1185.37 1057.4 1169.61 1057.81C1141.41 1058.55 1104.92 1061.22 1091.41 1089.99C1090.55 1089.78 1089.65 1089.68 1088.75 1089.68C1083.66 1089.68 1078.31 1092.98 1077.82 1099.58C1074.8 1140.19 1072.62 1180.89 1071.35 1221.6C1070.74 1241.11 1070.33 1260.63 1070.11 1280.14C1069.95 1295.78 1069.5 1311.52 1072.91 1326.88C1075.79 1339.81 1081.88 1352.08 1092.68 1359.93C1102.55 1367.11 1115.2 1368.21 1127.61 1368.21C1133.07 1368.21 1138.48 1368 1143.59 1368C1144.1 1368 1144.61 1368 1145.1 1368C1184.48 1368.36 1223.86 1368.72 1263.24 1369.08C1275.72 1369.2 1288.55 1370 1301.25 1370C1308.02 1370 1314.75 1369.77 1321.38 1369.08C1336.58 1367.53 1349.73 1359.78 1356.65 1345.62C1363.09 1332.43 1364.5 1317.38 1364.73 1302.85C1365.06 1283.04 1365.03 1263.23 1365.19 1243.42C1365.51 1202.8 1365.81 1162.2 1366.13 1121.58C1366.19 1113.2 1367.19 1104.13 1365.16 1095.92C1362.97 1086.98 1356.85 1080.8 1348.92 1076.76C1332.87 1068.58 1314.9 1064.24 1297.2 1061.76C1270.87 1058.06 1244 1057 1217.19 1057L1217.22 1057.03Z" fill="black"/>
<path d="M1129.49 1174.44C1132.49 1189.09 1134.67 1203.89 1144.29 1215.81C1147.86 1220.24 1156.75 1219.17 1159.07 1213.89C1165.08 1200.19 1170.51 1186.28 1175.35 1172.15C1184.57 1187.09 1193.44 1202.24 1201.1 1218.09C1204.49 1225.1 1216.98 1223.81 1218.31 1215.82C1223.88 1182.12 1229.16 1148.37 1234.13 1114.58C1234.88 1109.5 1232.88 1104.36 1227.56 1102.88C1223.12 1101.64 1216.73 1104.41 1215.97 1109.52C1212.31 1134.42 1208.47 1159.31 1204.48 1184.17C1196.94 1170.92 1188.83 1158.01 1180.69 1145.11C1176.33 1138.21 1165.86 1139.39 1163.49 1147.38C1159.75 1160 1155.54 1172.44 1150.83 1184.71C1149.35 1178.11 1148.04 1171.46 1146.7 1164.83C1143.7 1150.04 1140.86 1135.21 1138.14 1120.35C1135.95 1108.33 1117.79 1113.42 1119.99 1125.4C1122.97 1141.78 1126.14 1158.11 1129.48 1174.43L1129.49 1174.44Z" fill="black"/>
<path d="M1313.89 1202.92C1298.4 1203.9 1283.31 1202.24 1268.52 1197.94L1270.42 1175.74C1280.87 1177.34 1291.4 1178.07 1301.99 1177.74C1314.04 1177.35 1314.09 1158.31 1301.99 1158.68C1291.92 1159 1281.95 1158.44 1272.04 1156.81L1273.47 1139.99C1287.4 1139.96 1301.31 1140.35 1315.21 1141.17C1327.29 1141.9 1327.24 1122.84 1315.21 1122.12C1298.45 1121.11 1281.67 1120.74 1264.88 1120.97C1259.48 1121.05 1255.93 1125.29 1255.49 1130.5C1253.39 1155.11 1251.29 1179.7 1249.19 1204.31C1248.79 1209 1251.31 1211.88 1254.63 1212.95C1255.41 1213.52 1256.31 1214.01 1257.36 1214.35C1275.51 1220.59 1294.74 1223.17 1313.88 1221.96C1325.88 1221.2 1325.97 1202.14 1313.88 1202.9L1313.89 1202.92Z" fill="black"/>
<path d="M1217.82 1239.59C1213.12 1257.67 1207.4 1275.42 1200.63 1292.78C1196.5 1277.49 1192.39 1262.2 1188.27 1246.92C1185.8 1237.77 1172.75 1238 1170.16 1246.92C1166.92 1258.13 1163.33 1269.24 1159.46 1280.24C1154.99 1266.66 1150.54 1253.07 1146.07 1239.49C1142.28 1227.94 1124.13 1232.9 1127.97 1244.54C1135.23 1266.67 1142.51 1288.8 1149.78 1310.92C1152.88 1320.38 1164.45 1319.42 1167.88 1310.92C1171.64 1301.61 1175.16 1292.22 1178.46 1282.75C1182.16 1296.51 1185.87 1310.26 1189.58 1324.02C1191.55 1331.37 1203.24 1333.95 1206.75 1326.29C1218.81 1299.96 1228.65 1272.69 1235.94 1244.63C1239.01 1232.8 1220.9 1227.74 1217.83 1239.58L1217.82 1239.59Z" fill="black"/>
<path d="M1307.58 1236.53C1292.02 1235.62 1276.58 1233.79 1261.23 1230.99C1257.83 1230.37 1254.37 1231.24 1252.05 1233.52C1250.04 1235.05 1248.58 1237.38 1248.31 1240.55C1246.5 1262.26 1245.15 1284.15 1245.13 1305.95C1245.13 1310.61 1245.93 1315.18 1249.77 1318.22C1254.09 1321.62 1259.46 1321.13 1264.61 1321.13C1275.85 1321.13 1287.09 1321.13 1298.33 1321.13C1310.42 1321.13 1310.43 1302.08 1298.33 1302.08C1286.96 1302.08 1275.38 1302.65 1263.97 1302.3C1263.97 1301.6 1263.99 1300.92 1264 1300.22C1264.07 1297.16 1264.13 1294.09 1264.23 1291.03C1264.23 1290.78 1264.25 1290.54 1264.26 1290.29H1289.08C1301.17 1290.29 1301.18 1271.23 1289.08 1271.23H1265.03C1265.38 1264.51 1265.82 1257.8 1266.31 1251.09C1279.99 1253.28 1293.76 1254.8 1307.58 1255.61C1319.66 1256.32 1319.62 1237.27 1307.58 1236.56V1236.53Z" fill="black"/>
<path d="M2174.4 1430.88C2173.38 1428.96 2172.73 1426.83 2172.46 1424.5C2172.18 1422.09 2172.05 1418.8 2172.05 1414.61C2172.05 1410.63 2171.5 1407.16 2170.41 1404.21C2169.32 1401.26 2167.06 1399.78 2163.65 1399.78C2162.35 1399.78 2161.06 1400.19 2159.76 1401.02C2158.53 1401.77 2157.61 1402.73 2157 1403.9C2156.04 1405.76 2155.39 1407.78 2155.05 1409.98C2154.71 1412.11 2154.54 1414.58 2154.54 1417.39C2154.54 1419.18 2154.64 1421 2154.84 1422.85C2154.84 1423.4 2154.88 1424.29 2154.95 1425.53C2155.08 1426.69 2155.15 1427.76 2155.15 1428.72C2155.15 1432.84 2153.72 1434.9 2150.85 1434.9C2147.1 1434.9 2145.12 1432.91 2144.91 1428.92C2144.91 1426.11 2144.95 1424.6 2145.01 1424.39V1419.97C2145.01 1417.49 2144.91 1415.09 2144.71 1412.76C2144.5 1410.42 2144.26 1408.67 2143.99 1407.51C2143.38 1405.24 2142.56 1403.49 2141.53 1402.25C2140.58 1401.02 2139.04 1400.4 2136.92 1400.4C2133.92 1400.4 2131.5 1401.7 2129.65 1404.31C2128.36 1406.37 2127.5 1408.88 2127.09 1411.83C2126.68 1415.61 2126.38 1418.59 2126.17 1420.79C2126.04 1422.92 2125.97 1425.39 2125.97 1428.2C2125.97 1430.19 2125.63 1431.81 2124.94 1433.04C2124.33 1434.28 2123.13 1434.9 2121.36 1434.9C2120.06 1434.9 2118.7 1434.55 2117.26 1433.87C2115.9 1433.11 2115.22 1432.12 2115.22 1430.88C2115.22 1429.58 2115.35 1428.27 2115.63 1426.97C2116.24 1423.05 2116.55 1416.05 2116.55 1405.96C2116.55 1404.31 2116.14 1402.73 2115.32 1401.22C2114.57 1399.65 2113.65 1398.86 2112.55 1398.86C2112.28 1398.86 2111.77 1398.99 2111.02 1399.27C2110.33 1399.54 2109.82 1399.68 2109.48 1399.68C2108.59 1399.68 2107.77 1399.27 2107.02 1398.44C2106.34 1397.62 2106 1396.93 2106 1396.38C2106 1394.67 2106.82 1393.23 2108.46 1392.06C2110.16 1390.82 2111.94 1390.21 2113.78 1390.21C2116.31 1390.21 2118.46 1391 2120.23 1392.57C2122.01 1394.15 2123.37 1396.35 2124.33 1399.16C2125.9 1396.42 2128.02 1394.22 2130.68 1392.57C2133.34 1390.86 2136.31 1390 2139.59 1390C2141.64 1390 2143.27 1390.27 2144.5 1390.82C2145.8 1391.3 2146.86 1392.03 2147.68 1392.99C2148.5 1393.88 2149.55 1395.25 2150.85 1397.11C2152.56 1394.91 2154.74 1393.19 2157.4 1391.96C2160.14 1390.72 2162.93 1390.1 2165.8 1390.1C2169.21 1390.1 2172.29 1391.51 2175.02 1394.32C2177.75 1397.07 2179.59 1400.26 2180.55 1403.9C2181.02 1405.76 2181.26 1409.32 2181.26 1414.61L2181.67 1420.58C2182.01 1424.15 2183.18 1426.32 2185.15 1427.07C2187.48 1427.76 2188.64 1428.48 2188.64 1429.23C2188.64 1430.88 2188.23 1432.08 2187.41 1432.84C2186.79 1433.25 2185.94 1433.7 2184.85 1434.18C2183.76 1434.66 2182.9 1434.9 2182.29 1434.9C2178.6 1434.9 2175.97 1433.56 2174.4 1430.88Z" fill="black"/>
<path d="M2195.07 1412.65C2195.07 1410.05 2195.55 1407.44 2196.5 1404.83C2197.46 1402.15 2198.72 1399.71 2200.29 1397.52C2201.86 1395.32 2204.35 1393.54 2207.77 1392.16C2211.18 1390.72 2214.22 1390 2216.88 1390C2219.61 1390 2222.38 1390.38 2225.17 1391.13C2228.04 1391.89 2230.02 1393.05 2231.11 1394.63C2233.64 1398.2 2234.9 1401.7 2234.9 1405.14C2234.9 1406.99 2234.49 1408.57 2233.67 1409.87C2232.92 1411.18 2231.83 1412.59 2230.4 1414.1C2229.24 1415.33 2227.39 1416.16 2224.87 1416.57C2222.41 1416.98 2219.95 1417.19 2217.49 1417.19C2215.92 1417.19 2214.01 1417.05 2211.76 1416.77C2209.51 1416.43 2207.32 1416.02 2205.21 1415.54C2205.34 1416.91 2205.68 1418.25 2206.23 1419.55C2206.78 1420.86 2207.43 1421.85 2208.18 1422.54C2209.54 1423.84 2210.94 1424.67 2212.37 1425.01C2213.88 1425.35 2215.79 1425.53 2218.11 1425.53C2220.57 1425.53 2222.85 1425.11 2224.97 1424.29C2226.68 1423.67 2228.08 1423.36 2229.17 1423.36C2230.47 1423.36 2231.46 1423.78 2232.14 1424.6C2232.82 1425.35 2233.16 1426.35 2233.16 1427.59C2233.16 1429.3 2232.17 1430.71 2230.19 1431.81C2228.21 1432.91 2225.93 1433.73 2223.33 1434.28C2220.81 1434.76 2218.76 1435 2217.19 1435C2213.98 1435 2210.87 1434.42 2207.87 1433.25C2204.87 1432.08 2202.37 1430.43 2200.39 1428.31C2198.76 1426.38 2197.46 1424.08 2196.5 1421.41C2195.55 1418.66 2195.07 1415.74 2195.07 1412.65ZM2217.39 1398.75C2215.89 1398.75 2214.39 1399.06 2212.89 1399.68C2211.39 1400.23 2210.16 1401.02 2209.2 1402.05C2207.97 1403.35 2207.12 1404.42 2206.64 1405.24C2206.23 1406 2205.96 1407.06 2205.82 1408.43C2207.53 1408.98 2211.08 1409.26 2216.47 1409.26C2219.41 1409.26 2221.66 1408.81 2223.23 1407.92C2224.87 1407.03 2225.69 1405.86 2225.69 1404.42C2225.69 1402.97 2224.8 1401.67 2223.02 1400.5C2221.25 1399.34 2219.37 1398.75 2217.39 1398.75Z" fill="black"/>
<path d="M2244.59 1399.06C2242.88 1397.62 2242.03 1395.94 2242.03 1394.02C2242.03 1393.05 2242.5 1392.2 2243.46 1391.44C2244.42 1390.62 2245.58 1390.21 2246.94 1390.21C2249.4 1390.21 2251.41 1390.86 2252.98 1392.16C2254.55 1393.47 2255.92 1395.35 2257.08 1397.83C2258.51 1395.15 2260.32 1393.19 2262.51 1391.96C2264.76 1390.65 2267.59 1390 2271.01 1390C2273.05 1390 2274.69 1390.27 2275.92 1390.82C2277.22 1391.3 2278.28 1392.03 2279.09 1392.99C2279.91 1393.88 2280.94 1395.25 2282.17 1397.11C2283.94 1394.91 2286.16 1393.19 2288.82 1391.96C2291.55 1390.72 2294.35 1390.1 2297.22 1390.1C2300.56 1390.1 2303.6 1391.51 2306.33 1394.32C2309.13 1397.14 2311.01 1400.33 2311.96 1403.9C2312.31 1405.41 2312.55 1408.98 2312.68 1414.61L2313.09 1420.58C2313.43 1424.22 2314.59 1426.38 2316.57 1427.07C2317.53 1427.35 2318.31 1427.69 2318.93 1428.1C2319.61 1428.44 2319.95 1428.82 2319.95 1429.23C2320.09 1430.88 2319.71 1432.08 2318.83 1432.84C2318.21 1433.25 2317.36 1433.7 2316.27 1434.18C2315.17 1434.66 2314.32 1434.9 2313.71 1434.9C2310.02 1434.9 2307.39 1433.56 2305.82 1430.88C2304.8 1429.1 2304.15 1427.07 2303.88 1424.81C2303.6 1422.47 2303.47 1419.31 2303.47 1415.33C2303.47 1411.08 2302.95 1407.44 2301.93 1404.42C2300.91 1401.33 2298.58 1399.78 2294.97 1399.78C2293.67 1399.78 2292.37 1400.19 2291.08 1401.02C2289.85 1401.77 2288.96 1402.73 2288.41 1403.9C2287.46 1405.76 2286.81 1407.78 2286.47 1409.98C2286.13 1412.11 2285.96 1414.58 2285.96 1417.39C2285.96 1419.18 2286.06 1421 2286.26 1422.85C2286.26 1423.4 2286.3 1424.29 2286.37 1425.53C2286.5 1426.69 2286.57 1427.76 2286.57 1428.72C2286.57 1430.43 2286.23 1431.91 2285.55 1433.15C2284.93 1434.31 2283.84 1434.9 2282.27 1434.9C2278.51 1434.9 2276.53 1432.91 2276.33 1428.92C2276.33 1426.11 2276.36 1424.6 2276.43 1424.39V1419.97C2276.43 1417.49 2276.33 1415.09 2276.13 1412.76C2275.92 1410.42 2275.68 1408.67 2275.41 1407.51C2274.79 1405.24 2273.97 1403.49 2272.95 1402.25C2271.93 1401.02 2270.36 1400.4 2268.24 1400.4C2266.81 1400.4 2265.48 1400.74 2264.25 1401.43C2263.02 1402.12 2261.96 1403.08 2261.07 1404.31C2259.78 1406.37 2258.92 1408.88 2258.51 1411.83C2258.1 1415.61 2257.8 1418.59 2257.59 1420.79C2257.45 1422.92 2257.39 1425.39 2257.39 1428.2C2257.39 1430.19 2257.04 1431.81 2256.36 1433.04C2255.75 1434.28 2254.55 1434.9 2252.78 1434.9C2251.48 1434.9 2250.12 1434.55 2248.68 1433.87C2247.32 1433.11 2246.63 1432.12 2246.63 1430.88C2246.63 1429.58 2246.77 1428.27 2247.04 1426.97C2247.66 1423.05 2247.97 1416.4 2247.97 1406.99C2247.97 1405.48 2247.62 1404 2246.94 1402.56C2246.33 1401.05 2245.54 1399.89 2244.59 1399.06Z" fill="black"/>
<path d="M2326.06 1410.9C2326.06 1406.72 2326.99 1403.25 2328.83 1400.5C2330.67 1397.69 2333.23 1395.05 2336.51 1392.57C2337.46 1391.89 2339.07 1391.3 2341.32 1390.82C2343.57 1390.27 2345.55 1390 2347.26 1390C2349.31 1390 2351.46 1390.45 2353.71 1391.34C2356.03 1392.16 2357.91 1393.12 2359.34 1394.22C2361.87 1396.08 2363.61 1398.24 2364.57 1400.71C2365.52 1403.11 2366 1406 2366 1409.36C2366 1410.8 2365.18 1412.21 2363.54 1413.58C2361.97 1414.89 2360.27 1415.54 2358.42 1415.54L2354.53 1415.43C2352.55 1415.43 2349.72 1415.5 2346.03 1415.64L2343.88 1415.74C2342.38 1415.88 2341.25 1415.95 2340.5 1415.95C2339.41 1415.95 2337.91 1415.81 2336 1415.54C2336.27 1418.76 2337.46 1421.3 2339.58 1423.16C2341.7 1424.94 2343.98 1425.84 2346.44 1425.84C2350.74 1425.84 2353.75 1424.98 2355.45 1423.26C2356.89 1422.23 2357.84 1421.58 2358.32 1421.3C2358.8 1421.03 2359.55 1420.89 2360.57 1420.89C2361.67 1420.89 2362.62 1421.41 2363.44 1422.44C2364.26 1423.47 2364.67 1424.5 2364.67 1425.53C2364.67 1426.69 2363.95 1427.89 2362.52 1429.13C2361.15 1430.3 2359.28 1431.53 2356.89 1432.84C2355.59 1433.39 2353.81 1433.87 2351.56 1434.28C2349.31 1434.69 2347.43 1434.9 2345.93 1434.9C2343.54 1434.9 2340.88 1434.21 2337.94 1432.84C2335.01 1431.4 2332.82 1429.82 2331.39 1428.1C2329.96 1426.38 2328.69 1423.95 2327.6 1420.79C2326.58 1417.63 2326.06 1414.34 2326.06 1410.9ZM2346.44 1408.12C2351.29 1408.12 2354.84 1407.95 2357.09 1407.61C2356.95 1405.62 2356.34 1404 2355.25 1402.77C2354.16 1401.46 2352.65 1400.37 2350.74 1399.47C2350.13 1399.2 2349.58 1398.99 2349.1 1398.86C2348.63 1398.72 2348.08 1398.65 2347.47 1398.65C2344.33 1398.65 2341.66 1399.51 2339.48 1401.22C2337.36 1402.94 2336.1 1405.14 2335.69 1407.81C2339.1 1408.02 2342.69 1408.12 2346.44 1408.12Z" fill="black"/>
<path d="M1109.25 920.406H1089.72V686.031H1128.78V900.875H1148.31V920.406H1226.44V900.875H1245.97V686.031H1285.03V920.406H1265.5V939.938H1245.97V959.469H1128.78V939.938H1109.25V920.406ZM1472.34 783.688H1452.81V764.156H1394.22V783.688H1374.69V842.281H1394.22V861.812H1452.81V842.281H1472.34V783.688ZM1355.16 881.344V959.469H1316.09V725.094H1355.16V744.625H1374.69V725.094H1472.34V744.625H1491.88V764.156H1511.41V861.812H1491.88V881.344H1472.34V900.875H1374.69V881.344H1355.16ZM1562 920.406H1542.47V881.344H1581.53V900.875H1601.06V920.406H1679.19V881.344H1640.12V861.812H1601.06V842.281H1562V822.75H1542.47V783.688H1562V764.156H1581.53V744.625H1698.72V764.156H1718.25V783.688H1737.78V822.75H1698.72V803.219H1679.19V783.688H1601.06V822.75H1659.66V842.281H1698.72V861.812H1718.25V881.344H1737.78V920.406H1718.25V939.938H1698.72V959.469H1581.53V939.938H1562V920.406ZM1886.03 705.562V744.625H1846.97V705.562H1886.03ZM1905.56 920.406H1925.09V959.469H1886.03V939.938H1866.5V920.406H1846.97V822.75H1807.91V783.688H1886.03V900.875H1905.56V920.406ZM2151.47 783.688V686.031H2190.53V959.469H2151.47V920.406H2131.94V939.938H2112.41V959.469H2053.81V939.938H2034.28V920.406H2014.75V900.875H1995.22V803.219H2014.75V783.688H2034.28V764.156H2053.81V744.625H2112.41V764.156H2131.94V783.688H2151.47ZM2053.81 900.875H2073.34V920.406H2092.88V900.875H2112.41V881.344H2131.94V822.75H2112.41V803.219H2092.88V783.688H2073.34V803.219H2053.81V822.75H2034.28V881.344H2053.81V900.875ZM2260.66 803.219V822.75H2377.84V803.219H2358.31V783.688H2280.19V803.219H2260.66ZM2416.91 900.875V920.406H2397.38V939.938H2377.84V959.469H2260.66V939.938H2241.12V920.406H2221.59V783.688H2241.12V764.156H2260.66V744.625H2377.84V764.156H2397.38V783.688H2416.91V842.281H2397.38V861.812H2260.66V900.875H2280.19V920.406H2358.31V900.875H2416.91ZM1468.34 1116.09V1311.41H1566V1291.88H1585.53V1135.62H1566V1116.09H1468.34ZM1429.28 1350.47V1077.03H1585.53V1096.56H1605.06V1116.09H1624.59V1311.41H1605.06V1330.94H1585.53V1350.47H1429.28ZM1714.25 1311.41H1792.38V1291.88H1811.91V1194.22H1792.38V1174.69H1714.25V1194.22H1694.72V1291.88H1714.25V1311.41ZM1694.72 1350.47V1330.94H1675.19V1311.41H1655.66V1174.69H1675.19V1155.16H1694.72V1135.62H1811.91V1155.16H1831.44V1174.69H1850.97V1311.41H1831.44V1330.94H1811.91V1350.47H1694.72ZM1882.03 1135.62H1921.09V1291.88H1940.62V1311.41H1960.16V1213.75H1999.22V1311.41H2018.75V1291.88H2038.28V1135.62H2077.34V1311.41H2057.81V1330.94H2038.28V1350.47H1999.22V1330.94H1960.16V1350.47H1921.09V1330.94H1901.56V1311.41H1882.03V1135.62ZM2147.47 1194.22V1350.47H2108.41V1135.62H2147.47V1155.16H2167V1135.62H2264.66V1155.16H2284.19V1174.69H2303.72V1350.47H2264.66V1194.22H2245.12V1174.69H2167V1194.22H2147.47Z" fill="black"/>
<path d="M472.59 105H445.165H417.755H390.329H362.919H335.51H308.084H280.674H253.249H225.839H206.587H198.413H179.177H151.751H124.341H96.916H69.506H42.0806H14.6707H-12.7547H-40.1646H-67.5746H-95V132.425H-67.5746V159.835V187.245H-40.1646V214.671H-12.7547V242.081H14.6707H42.0806H69.506H96.916H124.341V214.671H151.751V187.245H179.177V159.835V132.425H198.413H206.587H225.839V159.835V187.245H253.249V214.671H280.674V242.081H308.084H335.51H362.919H390.329H417.755V214.671H445.165V187.245H472.59V159.835V132.425H500V105H472.59Z" fill="black"/>
<path d="M96.9177 187.246H69.5078V214.656H96.9177V187.246Z" fill="white"/>
<path d="M69.4919 159.836H42.082V187.246H69.4919V159.836Z" fill="white"/>
<path d="M14.656 159.836H-12.7539V187.246H14.656V159.836Z" fill="white"/>
<path d="M42.0818 187.246H14.6719V214.656H42.0818V187.246Z" fill="white"/>
<path d="M124.324 159.836H96.9141V187.246H124.324V159.836Z" fill="white"/>
<path d="M151.75 132.426H124.34V159.836H151.75V132.426Z" fill="white"/>
<path d="M445.164 132.426H417.754V159.836H445.164V132.426Z" fill="white"/>
<path d="M335.492 187.246H308.082V214.656H335.492V187.246Z" fill="white"/>
<path d="M362.918 159.836H335.508V187.246H362.918V159.836Z" fill="white"/>
<path d="M417.738 159.836H390.328V187.246H417.738V159.836Z" fill="white"/>
<path d="M390.328 187.246H362.918V214.656H390.328V187.246Z" fill="white"/>
<path d="M308.086 159.836H280.676V187.246H308.086V159.836Z" fill="white"/>
<path d="M280.66 132.426H253.25V159.836H280.66V132.426Z" fill="white"/>
<path d="M492.59 1555H465.165H437.755H410.329H382.919H355.51H328.084H300.674H273.249H245.839H226.587H218.413H199.177H171.751H144.341H116.916H89.506H62.0806H34.6707H7.24525H-20.1646H-47.5746H-75V1582.43H-47.5746V1609.84V1637.25H-20.1646V1664.67H7.24525V1692.08H34.6707H62.0806H89.506H116.916H144.341V1664.67H171.751V1637.25H199.177V1609.84V1582.43H218.413H226.587H245.839V1609.84V1637.25H273.249V1664.67H300.674V1692.08H328.084H355.51H382.919H410.329H437.755V1664.67H465.165V1637.25H492.59V1609.84V1582.43H520V1555H492.59Z" fill="black"/>
<path d="M7.24584 1582.43H-20.1641V1609.84H7.24584V1582.43Z" fill="white"/>
<path d="M116.918 1637.25H89.5078V1664.66H116.918V1637.25Z" fill="white"/>
<path d="M89.4919 1609.84H62.082V1637.25H89.4919V1609.84Z" fill="white"/>
<path d="M34.656 1609.84H7.24609V1637.25H34.656V1609.84Z" fill="white"/>
<path d="M62.0818 1637.25H34.6719V1664.66H62.0818V1637.25Z" fill="white"/>
<path d="M144.324 1609.84H116.914V1637.25H144.324V1609.84Z" fill="white"/>
<path d="M171.75 1582.43H144.34V1609.84H171.75V1582.43Z" fill="white"/>
<path d="M465.164 1582.43H437.754V1609.84H465.164V1582.43Z" fill="white"/>
<path d="M355.492 1637.25H328.082V1664.66H355.492V1637.25Z" fill="white"/>
<path d="M382.918 1609.84H355.508V1637.25H382.918V1609.84Z" fill="white"/>
<path d="M437.738 1609.84H410.328V1637.25H437.738V1609.84Z" fill="white"/>
<path d="M410.328 1637.25H382.918V1664.66H410.328V1637.25Z" fill="white"/>
<path d="M328.086 1609.84H300.676V1637.25H328.086V1609.84Z" fill="white"/>
<path d="M300.66 1582.43H273.25V1609.84H300.66V1582.43Z" fill="white"/>
<path d="M472.59 405H445.165H417.755H390.329H362.919H335.51H308.084H280.674H253.249H225.839H206.587H198.413H179.177H151.751H124.341H96.916H69.506H42.0806H14.6707H-12.7547H-40.1646H-67.5746H-95V432.425H-67.5746V459.835V487.245H-40.1646V514.671H-12.7547V542.081H14.6707H42.0806H69.506H96.916H124.341V514.671H151.751V487.245H179.177V459.835V432.425H198.413H206.587H225.839V459.835V487.245H253.249V514.671H280.674V542.081H308.084H335.51H362.919H390.329H417.755V514.671H445.165V487.245H472.59V459.835V432.425H500V405H472.59Z" fill="black"/>
<path d="M96.9177 487.246H69.5078V514.656H96.9177V487.246Z" fill="white"/>
<path d="M69.4919 459.836H42.082V487.246H69.4919V459.836Z" fill="white"/>
<path d="M14.656 459.836H-12.7539V487.246H14.656V459.836Z" fill="white"/>
<path d="M42.0818 487.246H14.6719V514.656H42.0818V487.246Z" fill="white"/>
<path d="M124.324 459.836H96.9141V487.246H124.324V459.836Z" fill="white"/>
<path d="M151.75 432.426H124.34V459.836H151.75V432.426Z" fill="white"/>
<path d="M445.164 432.426H417.754V459.836H445.164V432.426Z" fill="white"/>
<path d="M335.492 487.246H308.082V514.656H335.492V487.246Z" fill="white"/>
<path d="M362.918 459.836H335.508V487.246H362.918V459.836Z" fill="white"/>
<path d="M417.738 459.836H390.328V487.246H417.738V459.836Z" fill="white"/>
<path d="M390.328 487.246H362.918V514.656H390.328V487.246Z" fill="white"/>
<path d="M308.086 459.836H280.676V487.246H308.086V459.836Z" fill="white"/>
<path d="M280.66 432.426H253.25V459.836H280.66V432.426Z" fill="white"/>
<path d="M492.59 1855H465.165H437.755H410.329H382.919H355.51H328.084H300.674H273.249H245.839H226.587H218.413H199.177H171.751H144.341H116.916H89.506H62.0806H34.6707H7.24525H-20.1646H-47.5746H-75V1882.43H-47.5746V1909.84V1937.25H-20.1646V1964.67H7.24525V1992.08H34.6707H62.0806H89.506H116.916H144.341V1964.67H171.751V1937.25H199.177V1909.84V1882.43H218.413H226.587H245.839V1909.84V1937.25H273.249V1964.67H300.674V1992.08H328.084H355.51H382.919H410.329H437.755V1964.67H465.165V1937.25H492.59V1909.84V1882.43H520V1855H492.59Z" fill="black"/>
<path d="M7.24584 1882.43H-20.1641V1909.84H7.24584V1882.43Z" fill="white"/>
<path d="M116.918 1937.25H89.5078V1964.66H116.918V1937.25Z" fill="white"/>
<path d="M89.4919 1909.84H62.082V1937.25H89.4919V1909.84Z" fill="white"/>
<path d="M34.656 1909.84H7.24609V1937.25H34.656V1909.84Z" fill="white"/>
<path d="M62.0818 1937.25H34.6719V1964.66H62.0818V1937.25Z" fill="white"/>
<path d="M144.324 1909.84H116.914V1937.25H144.324V1909.84Z" fill="white"/>
<path d="M171.75 1882.43H144.34V1909.84H171.75V1882.43Z" fill="white"/>
<path d="M465.164 1882.43H437.754V1909.84H465.164V1882.43Z" fill="white"/>
<path d="M355.492 1937.25H328.082V1964.66H355.492V1937.25Z" fill="white"/>
<path d="M382.918 1909.84H355.508V1937.25H382.918V1909.84Z" fill="white"/>
<path d="M437.738 1909.84H410.328V1937.25H437.738V1909.84Z" fill="white"/>
<path d="M410.328 1937.25H382.918V1964.66H410.328V1937.25Z" fill="white"/>
<path d="M328.086 1909.84H300.676V1937.25H328.086V1909.84Z" fill="white"/>
<path d="M300.66 1882.43H273.25V1909.84H300.66V1882.43Z" fill="white"/>
<path d="M1163.59 105H1136.16H1108.75H1081.33H1053.92H1026.51H999.084H971.674H944.249H916.839H897.587H889.413H870.177H842.751H815.341H787.916H760.506H733.081H705.671H678.245H650.835H623.425H596V132.425H623.425V159.835V187.245H650.835V214.671H678.245V242.081H705.671H733.081H760.506H787.916H815.341V214.671H842.751V187.245H870.177V159.835V132.425H889.413H897.587H916.839V159.835V187.245H944.249V214.671H971.674V242.081H999.084H1026.51H1053.92H1081.33H1108.75V214.671H1136.16V187.245H1163.59V159.835V132.425H1191V105H1163.59Z" fill="black"/>
<path d="M678.246 132.426H650.836V159.836H678.246V132.426Z" fill="white"/>
<path d="M787.918 187.246H760.508V214.656H787.918V187.246Z" fill="white"/>
<path d="M760.492 159.836H733.082V187.246H760.492V159.836Z" fill="white"/>
<path d="M705.656 159.836H678.246V187.246H705.656V159.836Z" fill="white"/>
<path d="M733.082 187.246H705.672V214.656H733.082V187.246Z" fill="white"/>
<path d="M815.324 159.836H787.914V187.246H815.324V159.836Z" fill="white"/>
<path d="M842.75 132.426H815.34V159.836H842.75V132.426Z" fill="white"/>
<path d="M1136.16 132.426H1108.75V159.836H1136.16V132.426Z" fill="white"/>
<path d="M1026.49 187.246H999.082V214.656H1026.49V187.246Z" fill="white"/>
<path d="M1053.92 159.836H1026.51V187.246H1053.92V159.836Z" fill="white"/>
<path d="M1108.74 159.836H1081.33V187.246H1108.74V159.836Z" fill="white"/>
<path d="M1081.33 187.246H1053.92V214.656H1081.33V187.246Z" fill="white"/>
<path d="M999.086 159.836H971.676V187.246H999.086V159.836Z" fill="white"/>
<path d="M971.66 132.426H944.25V159.836H971.66V132.426Z" fill="white"/>
<path d="M1183.59 1555H1156.16H1128.75H1101.33H1073.92H1046.51H1019.08H991.674H964.249H936.839H917.587H909.413H890.177H862.751H835.341H807.916H780.506H753.081H725.671H698.245H670.835H643.425H616V1582.43H643.425V1609.84V1637.25H670.835V1664.67H698.245V1692.08H725.671H753.081H780.506H807.916H835.341V1664.67H862.751V1637.25H890.177V1609.84V1582.43H909.413H917.587H936.839V1609.84V1637.25H964.249V1664.67H991.674V1692.08H1019.08H1046.51H1073.92H1101.33H1128.75V1664.67H1156.16V1637.25H1183.59V1609.84V1582.43H1211V1555H1183.59Z" fill="black"/>
<path d="M698.246 1582.43H670.836V1609.84H698.246V1582.43Z" fill="white"/>
<path d="M807.918 1637.25H780.508V1664.66H807.918V1637.25Z" fill="white"/>
<path d="M780.492 1609.84H753.082V1637.25H780.492V1609.84Z" fill="white"/>
<path d="M725.656 1609.84H698.246V1637.25H725.656V1609.84Z" fill="white"/>
<path d="M753.082 1637.25H725.672V1664.66H753.082V1637.25Z" fill="white"/>
<path d="M835.324 1609.84H807.914V1637.25H835.324V1609.84Z" fill="white"/>
<path d="M862.75 1582.43H835.34V1609.84H862.75V1582.43Z" fill="white"/>
<path d="M1156.16 1582.43H1128.75V1609.84H1156.16V1582.43Z" fill="white"/>
<path d="M1046.49 1637.25H1019.08V1664.66H1046.49V1637.25Z" fill="white"/>
<path d="M1073.92 1609.84H1046.51V1637.25H1073.92V1609.84Z" fill="white"/>
<path d="M1128.74 1609.84H1101.33V1637.25H1128.74V1609.84Z" fill="white"/>
<path d="M1101.33 1637.25H1073.92V1664.66H1101.33V1637.25Z" fill="white"/>
<path d="M1019.09 1609.84H991.676V1637.25H1019.09V1609.84Z" fill="white"/>
<path d="M991.66 1582.43H964.25V1609.84H991.66V1582.43Z" fill="white"/>
<path d="M1163.59 405H1136.16H1108.75H1081.33H1053.92H1026.51H999.084H971.674H944.249H916.839H897.587H889.413H870.177H842.751H815.341H787.916H760.506H733.081H705.671H678.245H650.835H623.425H596V432.425H623.425V459.835V487.245H650.835V514.671H678.245V542.081H705.671H733.081H760.506H787.916H815.341V514.671H842.751V487.245H870.177V459.835V432.425H889.413H897.587H916.839V459.835V487.245H944.249V514.671H971.674V542.081H999.084H1026.51H1053.92H1081.33H1108.75V514.671H1136.16V487.245H1163.59V459.835V432.425H1191V405H1163.59Z" fill="black"/>
<path d="M678.246 432.426H650.836V459.836H678.246V432.426Z" fill="white"/>
<path d="M787.918 487.246H760.508V514.656H787.918V487.246Z" fill="white"/>
<path d="M760.492 459.836H733.082V487.246H760.492V459.836Z" fill="white"/>
<path d="M705.656 459.836H678.246V487.246H705.656V459.836Z" fill="white"/>
<path d="M733.082 487.246H705.672V514.656H733.082V487.246Z" fill="white"/>
<path d="M815.324 459.836H787.914V487.246H815.324V459.836Z" fill="white"/>
<path d="M842.75 432.426H815.34V459.836H842.75V432.426Z" fill="white"/>
<path d="M1136.16 432.426H1108.75V459.836H1136.16V432.426Z" fill="white"/>
<path d="M1026.49 487.246H999.082V514.656H1026.49V487.246Z" fill="white"/>
<path d="M1053.92 459.836H1026.51V487.246H1053.92V459.836Z" fill="white"/>
<path d="M1108.74 459.836H1081.33V487.246H1108.74V459.836Z" fill="white"/>
<path d="M1081.33 487.246H1053.92V514.656H1081.33V487.246Z" fill="white"/>
<path d="M999.086 459.836H971.676V487.246H999.086V459.836Z" fill="white"/>
<path d="M971.66 432.426H944.25V459.836H971.66V432.426Z" fill="white"/>
<path d="M1183.59 1855H1156.16H1128.75H1101.33H1073.92H1046.51H1019.08H991.674H964.249H936.839H917.587H909.413H890.177H862.751H835.341H807.916H780.506H753.081H725.671H698.245H670.835H643.425H616V1882.43H643.425V1909.84V1937.25H670.835V1964.67H698.245V1992.08H725.671H753.081H780.506H807.916H835.341V1964.67H862.751V1937.25H890.177V1909.84V1882.43H909.413H917.587H936.839V1909.84V1937.25H964.249V1964.67H991.674V1992.08H1019.08H1046.51H1073.92H1101.33H1128.75V1964.67H1156.16V1937.25H1183.59V1909.84V1882.43H1211V1855H1183.59Z" fill="black"/>
<path d="M698.246 1882.43H670.836V1909.84H698.246V1882.43Z" fill="white"/>
<path d="M807.918 1937.25H780.508V1964.66H807.918V1937.25Z" fill="white"/>
<path d="M780.492 1909.84H753.082V1937.25H780.492V1909.84Z" fill="white"/>
<path d="M725.656 1909.84H698.246V1937.25H725.656V1909.84Z" fill="white"/>
<path d="M753.082 1937.25H725.672V1964.66H753.082V1937.25Z" fill="white"/>
<path d="M835.324 1909.84H807.914V1937.25H835.324V1909.84Z" fill="white"/>
<path d="M862.75 1882.43H835.34V1909.84H862.75V1882.43Z" fill="white"/>
<path d="M1156.16 1882.43H1128.75V1909.84H1156.16V1882.43Z" fill="white"/>
<path d="M1046.49 1937.25H1019.08V1964.66H1046.49V1937.25Z" fill="white"/>
<path d="M1073.92 1909.84H1046.51V1937.25H1073.92V1909.84Z" fill="white"/>
<path d="M1128.74 1909.84H1101.33V1937.25H1128.74V1909.84Z" fill="white"/>
<path d="M1101.33 1937.25H1073.92V1964.66H1101.33V1937.25Z" fill="white"/>
<path d="M1019.09 1909.84H991.676V1937.25H1019.09V1909.84Z" fill="white"/>
<path d="M991.66 1882.43H964.25V1909.84H991.66V1882.43Z" fill="white"/>
<path d="M1854.59 105H1827.16H1799.75H1772.33H1744.92H1717.51H1690.08H1662.67H1635.25H1607.84H1588.59H1580.41H1561.18H1533.75H1506.34H1478.92H1451.51H1424.08H1396.67H1369.25H1341.84H1314.43H1287V132.425H1314.43V159.835V187.245H1341.84V214.671H1369.25V242.081H1396.67H1424.08H1451.51H1478.92H1506.34V214.671H1533.75V187.245H1561.18V159.835V132.425H1580.41H1588.59H1607.84V159.835V187.245H1635.25V214.671H1662.67V242.081H1690.08H1717.51H1744.92H1772.33H1799.75V214.671H1827.16V187.245H1854.59V159.835V132.425H1882V105H1854.59Z" fill="black"/>
<path d="M1369.25 132.426H1341.84V159.836H1369.25V132.426Z" fill="white"/>
<path d="M1478.92 187.246H1451.51V214.656H1478.92V187.246Z" fill="white"/>
<path d="M1451.49 159.836H1424.08V187.246H1451.49V159.836Z" fill="white"/>
<path d="M1396.66 159.836H1369.25V187.246H1396.66V159.836Z" fill="white"/>
<path d="M1424.08 187.246H1396.67V214.656H1424.08V187.246Z" fill="white"/>
<path d="M1506.32 159.836H1478.91V187.246H1506.32V159.836Z" fill="white"/>
<path d="M1533.75 132.426H1506.34V159.836H1533.75V132.426Z" fill="white"/>
<path d="M1827.16 132.426H1799.75V159.836H1827.16V132.426Z" fill="white"/>
<path d="M1717.49 187.246H1690.08V214.656H1717.49V187.246Z" fill="white"/>
<path d="M1744.92 159.836H1717.51V187.246H1744.92V159.836Z" fill="white"/>
<path d="M1799.74 159.836H1772.33V187.246H1799.74V159.836Z" fill="white"/>
<path d="M1772.33 187.246H1744.92V214.656H1772.33V187.246Z" fill="white"/>
<path d="M1690.09 159.836H1662.68V187.246H1690.09V159.836Z" fill="white"/>
<path d="M1662.66 132.426H1635.25V159.836H1662.66V132.426Z" fill="white"/>
<path d="M1874.59 1555H1847.16H1819.75H1792.33H1764.92H1737.51H1710.08H1682.67H1655.25H1627.84H1608.59H1600.41H1581.18H1553.75H1526.34H1498.92H1471.51H1444.08H1416.67H1389.25H1361.84H1334.43H1307V1582.43H1334.43V1609.84V1637.25H1361.84V1664.67H1389.25V1692.08H1416.67H1444.08H1471.51H1498.92H1526.34V1664.67H1553.75V1637.25H1581.18V1609.84V1582.43H1600.41H1608.59H1627.84V1609.84V1637.25H1655.25V1664.67H1682.67V1692.08H1710.08H1737.51H1764.92H1792.33H1819.75V1664.67H1847.16V1637.25H1874.59V1609.84V1582.43H1902V1555H1874.59Z" fill="black"/>
<path d="M1389.25 1582.43H1361.84V1609.84H1389.25V1582.43Z" fill="white"/>
<path d="M1498.92 1637.25H1471.51V1664.66H1498.92V1637.25Z" fill="white"/>
<path d="M1471.49 1609.84H1444.08V1637.25H1471.49V1609.84Z" fill="white"/>
<path d="M1416.66 1609.84H1389.25V1637.25H1416.66V1609.84Z" fill="white"/>
<path d="M1444.08 1637.25H1416.67V1664.66H1444.08V1637.25Z" fill="white"/>
<path d="M1526.32 1609.84H1498.91V1637.25H1526.32V1609.84Z" fill="white"/>
<path d="M1553.75 1582.43H1526.34V1609.84H1553.75V1582.43Z" fill="white"/>
<path d="M1847.16 1582.43H1819.75V1609.84H1847.16V1582.43Z" fill="white"/>
<path d="M1737.49 1637.25H1710.08V1664.66H1737.49V1637.25Z" fill="white"/>
<path d="M1764.92 1609.84H1737.51V1637.25H1764.92V1609.84Z" fill="white"/>
<path d="M1819.74 1609.84H1792.33V1637.25H1819.74V1609.84Z" fill="white"/>
<path d="M1792.33 1637.25H1764.92V1664.66H1792.33V1637.25Z" fill="white"/>
<path d="M1710.09 1609.84H1682.68V1637.25H1710.09V1609.84Z" fill="white"/>
<path d="M1682.66 1582.43H1655.25V1609.84H1682.66V1582.43Z" fill="white"/>
<path d="M1854.59 405H1827.16H1799.75H1772.33H1744.92H1717.51H1690.08H1662.67H1635.25H1607.84H1588.59H1580.41H1561.18H1533.75H1506.34H1478.92H1451.51H1424.08H1396.67H1369.25H1341.84H1314.43H1287V432.425H1314.43V459.835V487.245H1341.84V514.671H1369.25V542.081H1396.67H1424.08H1451.51H1478.92H1506.34V514.671H1533.75V487.245H1561.18V459.835V432.425H1580.41H1588.59H1607.84V459.835V487.245H1635.25V514.671H1662.67V542.081H1690.08H1717.51H1744.92H1772.33H1799.75V514.671H1827.16V487.245H1854.59V459.835V432.425H1882V405H1854.59Z" fill="black"/>
<path d="M1369.25 432.426H1341.84V459.836H1369.25V432.426Z" fill="white"/>
<path d="M1478.92 487.246H1451.51V514.656H1478.92V487.246Z" fill="white"/>
<path d="M1451.49 459.836H1424.08V487.246H1451.49V459.836Z" fill="white"/>
<path d="M1396.66 459.836H1369.25V487.246H1396.66V459.836Z" fill="white"/>
<path d="M1424.08 487.246H1396.67V514.656H1424.08V487.246Z" fill="white"/>
<path d="M1506.32 459.836H1478.91V487.246H1506.32V459.836Z" fill="white"/>
<path d="M1533.75 432.426H1506.34V459.836H1533.75V432.426Z" fill="white"/>
<path d="M1827.16 432.426H1799.75V459.836H1827.16V432.426Z" fill="white"/>
<path d="M1717.49 487.246H1690.08V514.656H1717.49V487.246Z" fill="white"/>
<path d="M1744.92 459.836H1717.51V487.246H1744.92V459.836Z" fill="white"/>
<path d="M1799.74 459.836H1772.33V487.246H1799.74V459.836Z" fill="white"/>
<path d="M1772.33 487.246H1744.92V514.656H1772.33V487.246Z" fill="white"/>
<path d="M1690.09 459.836H1662.68V487.246H1690.09V459.836Z" fill="white"/>
<path d="M1662.66 432.426H1635.25V459.836H1662.66V432.426Z" fill="white"/>
<path d="M1874.59 1855H1847.16H1819.75H1792.33H1764.92H1737.51H1710.08H1682.67H1655.25H1627.84H1608.59H1600.41H1581.18H1553.75H1526.34H1498.92H1471.51H1444.08H1416.67H1389.25H1361.84H1334.43H1307V1882.43H1334.43V1909.84V1937.25H1361.84V1964.67H1389.25V1992.08H1416.67H1444.08H1471.51H1498.92H1526.34V1964.67H1553.75V1937.25H1581.18V1909.84V1882.43H1600.41H1608.59H1627.84V1909.84V1937.25H1655.25V1964.67H1682.67V1992.08H1710.08H1737.51H1764.92H1792.33H1819.75V1964.67H1847.16V1937.25H1874.59V1909.84V1882.43H1902V1855H1874.59Z" fill="black"/>
<path d="M1389.25 1882.43H1361.84V1909.84H1389.25V1882.43Z" fill="white"/>
<path d="M1498.92 1937.25H1471.51V1964.66H1498.92V1937.25Z" fill="white"/>
<path d="M1471.49 1909.84H1444.08V1937.25H1471.49V1909.84Z" fill="white"/>
<path d="M1416.66 1909.84H1389.25V1937.25H1416.66V1909.84Z" fill="white"/>
<path d="M1444.08 1937.25H1416.67V1964.66H1444.08V1937.25Z" fill="white"/>
<path d="M1526.32 1909.84H1498.91V1937.25H1526.32V1909.84Z" fill="white"/>
<path d="M1553.75 1882.43H1526.34V1909.84H1553.75V1882.43Z" fill="white"/>
<path d="M1847.16 1882.43H1819.75V1909.84H1847.16V1882.43Z" fill="white"/>
<path d="M1737.49 1937.25H1710.08V1964.66H1737.49V1937.25Z" fill="white"/>
<path d="M1764.92 1909.84H1737.51V1937.25H1764.92V1909.84Z" fill="white"/>
<path d="M1819.74 1909.84H1792.33V1937.25H1819.74V1909.84Z" fill="white"/>
<path d="M1792.33 1937.25H1764.92V1964.66H1792.33V1937.25Z" fill="white"/>
<path d="M1710.09 1909.84H1682.68V1937.25H1710.09V1909.84Z" fill="white"/>
<path d="M1682.66 1882.43H1655.25V1909.84H1682.66V1882.43Z" fill="white"/>
<path d="M2545.59 105H2518.16H2490.75H2463.33H2435.92H2408.51H2381.08H2353.67H2326.25H2298.84H2279.59H2271.41H2252.18H2224.75H2197.34H2169.92H2142.51H2115.08H2087.67H2060.25H2032.84H2005.43H1978V132.425H2005.43V159.835V187.245H2032.84V214.671H2060.25V242.081H2087.67H2115.08H2142.51H2169.92H2197.34V214.671H2224.75V187.245H2252.18V159.835V132.425H2271.41H2279.59H2298.84V159.835V187.245H2326.25V214.671H2353.67V242.081H2381.08H2408.51H2435.92H2463.33H2490.75V214.671H2518.16V187.245H2545.59V159.835V132.425H2573V105H2545.59Z" fill="black"/>
<path d="M2060.25 132.426H2032.84V159.836H2060.25V132.426Z" fill="white"/>
<path d="M2169.92 187.246H2142.51V214.656H2169.92V187.246Z" fill="white"/>
<path d="M2142.49 159.836H2115.08V187.246H2142.49V159.836Z" fill="white"/>
<path d="M2087.66 159.836H2060.25V187.246H2087.66V159.836Z" fill="white"/>
<path d="M2115.08 187.246H2087.67V214.656H2115.08V187.246Z" fill="white"/>
<path d="M2197.32 159.836H2169.91V187.246H2197.32V159.836Z" fill="white"/>
<path d="M2224.75 132.426H2197.34V159.836H2224.75V132.426Z" fill="white"/>
<path d="M2518.16 132.426H2490.75V159.836H2518.16V132.426Z" fill="white"/>
<path d="M2408.49 187.246H2381.08V214.656H2408.49V187.246Z" fill="white"/>
<path d="M2435.92 159.836H2408.51V187.246H2435.92V159.836Z" fill="white"/>
<path d="M2490.74 159.836H2463.33V187.246H2490.74V159.836Z" fill="white"/>
<path d="M2463.33 187.246H2435.92V214.656H2463.33V187.246Z" fill="white"/>
<path d="M2381.09 159.836H2353.68V187.246H2381.09V159.836Z" fill="white"/>
<path d="M2353.66 132.426H2326.25V159.836H2353.66V132.426Z" fill="white"/>
<path d="M2565.59 1555H2538.16H2510.75H2483.33H2455.92H2428.51H2401.08H2373.67H2346.25H2318.84H2299.59H2291.41H2272.18H2244.75H2217.34H2189.92H2162.51H2135.08H2107.67H2080.25H2052.84H2025.43H1998V1582.43H2025.43V1609.84V1637.25H2052.84V1664.67H2080.25V1692.08H2107.67H2135.08H2162.51H2189.92H2217.34V1664.67H2244.75V1637.25H2272.18V1609.84V1582.43H2291.41H2299.59H2318.84V1609.84V1637.25H2346.25V1664.67H2373.67V1692.08H2401.08H2428.51H2455.92H2483.33H2510.75V1664.67H2538.16V1637.25H2565.59V1609.84V1582.43H2593V1555H2565.59Z" fill="black"/>
<path d="M2080.25 1582.43H2052.84V1609.84H2080.25V1582.43Z" fill="white"/>
<path d="M2189.92 1637.25H2162.51V1664.66H2189.92V1637.25Z" fill="white"/>
<path d="M2162.49 1609.84H2135.08V1637.25H2162.49V1609.84Z" fill="white"/>
<path d="M2107.66 1609.84H2080.25V1637.25H2107.66V1609.84Z" fill="white"/>
<path d="M2135.08 1637.25H2107.67V1664.66H2135.08V1637.25Z" fill="white"/>
<path d="M2217.32 1609.84H2189.91V1637.25H2217.32V1609.84Z" fill="white"/>
<path d="M2244.75 1582.43H2217.34V1609.84H2244.75V1582.43Z" fill="white"/>
<path d="M2538.16 1582.43H2510.75V1609.84H2538.16V1582.43Z" fill="white"/>
<path d="M2428.49 1637.25H2401.08V1664.66H2428.49V1637.25Z" fill="white"/>
<path d="M2455.92 1609.84H2428.51V1637.25H2455.92V1609.84Z" fill="white"/>
<path d="M2510.74 1609.84H2483.33V1637.25H2510.74V1609.84Z" fill="white"/>
<path d="M2483.33 1637.25H2455.92V1664.66H2483.33V1637.25Z" fill="white"/>
<path d="M2401.09 1609.84H2373.68V1637.25H2401.09V1609.84Z" fill="white"/>
<path d="M2373.66 1582.43H2346.25V1609.84H2373.66V1582.43Z" fill="white"/>
<path d="M2545.59 405H2518.16H2490.75H2463.33H2435.92H2408.51H2381.08H2353.67H2326.25H2298.84H2279.59H2271.41H2252.18H2224.75H2197.34H2169.92H2142.51H2115.08H2087.67H2060.25H2032.84H2005.43H1978V432.425H2005.43V459.835V487.245H2032.84V514.671H2060.25V542.081H2087.67H2115.08H2142.51H2169.92H2197.34V514.671H2224.75V487.245H2252.18V459.835V432.425H2271.41H2279.59H2298.84V459.835V487.245H2326.25V514.671H2353.67V542.081H2381.08H2408.51H2435.92H2463.33H2490.75V514.671H2518.16V487.245H2545.59V459.835V432.425H2573V405H2545.59Z" fill="black"/>
<path d="M2060.25 432.426H2032.84V459.836H2060.25V432.426Z" fill="white"/>
<path d="M2169.92 487.246H2142.51V514.656H2169.92V487.246Z" fill="white"/>
<path d="M2142.49 459.836H2115.08V487.246H2142.49V459.836Z" fill="white"/>
<path d="M2087.66 459.836H2060.25V487.246H2087.66V459.836Z" fill="white"/>
<path d="M2115.08 487.246H2087.67V514.656H2115.08V487.246Z" fill="white"/>
<path d="M2197.32 459.836H2169.91V487.246H2197.32V459.836Z" fill="white"/>
<path d="M2224.75 432.426H2197.34V459.836H2224.75V432.426Z" fill="white"/>
<path d="M2518.16 432.426H2490.75V459.836H2518.16V432.426Z" fill="white"/>
<path d="M2408.49 487.246H2381.08V514.656H2408.49V487.246Z" fill="white"/>
<path d="M2435.92 459.836H2408.51V487.246H2435.92V459.836Z" fill="white"/>
<path d="M2490.74 459.836H2463.33V487.246H2490.74V459.836Z" fill="white"/>
<path d="M2463.33 487.246H2435.92V514.656H2463.33V487.246Z" fill="white"/>
<path d="M2381.09 459.836H2353.68V487.246H2381.09V459.836Z" fill="white"/>
<path d="M2353.66 432.426H2326.25V459.836H2353.66V432.426Z" fill="white"/>
<path d="M2565.59 1855H2538.16H2510.75H2483.33H2455.92H2428.51H2401.08H2373.67H2346.25H2318.84H2299.59H2291.41H2272.18H2244.75H2217.34H2189.92H2162.51H2135.08H2107.67H2080.25H2052.84H2025.43H1998V1882.43H2025.43V1909.84V1937.25H2052.84V1964.67H2080.25V1992.08H2107.67H2135.08H2162.51H2189.92H2217.34V1964.67H2244.75V1937.25H2272.18V1909.84V1882.43H2291.41H2299.59H2318.84V1909.84V1937.25H2346.25V1964.67H2373.67V1992.08H2401.08H2428.51H2455.92H2483.33H2510.75V1964.67H2538.16V1937.25H2565.59V1909.84V1882.43H2593V1855H2565.59Z" fill="black"/>
<path d="M2080.25 1882.43H2052.84V1909.84H2080.25V1882.43Z" fill="white"/>
<path d="M2189.92 1937.25H2162.51V1964.66H2189.92V1937.25Z" fill="white"/>
<path d="M2162.49 1909.84H2135.08V1937.25H2162.49V1909.84Z" fill="white"/>
<path d="M2107.66 1909.84H2080.25V1937.25H2107.66V1909.84Z" fill="white"/>
<path d="M2135.08 1937.25H2107.67V1964.66H2135.08V1937.25Z" fill="white"/>
<path d="M2217.32 1909.84H2189.91V1937.25H2217.32V1909.84Z" fill="white"/>
<path d="M2244.75 1882.43H2217.34V1909.84H2244.75V1882.43Z" fill="white"/>
<path d="M2538.16 1882.43H2510.75V1909.84H2538.16V1882.43Z" fill="white"/>
<path d="M2428.49 1937.25H2401.08V1964.66H2428.49V1937.25Z" fill="white"/>
<path d="M2455.92 1909.84H2428.51V1937.25H2455.92V1909.84Z" fill="white"/>
<path d="M2510.74 1909.84H2483.33V1937.25H2510.74V1909.84Z" fill="white"/>
<path d="M2483.33 1937.25H2455.92V1964.66H2483.33V1937.25Z" fill="white"/>
<path d="M2401.09 1909.84H2373.68V1937.25H2401.09V1909.84Z" fill="white"/>
<path d="M2373.66 1882.43H2346.25V1909.84H2373.66V1882.43Z" fill="white"/>
<path d="M3236.59 105H3209.16H3181.75H3154.33H3126.92H3099.51H3072.08H3044.67H3017.25H2989.84H2970.59H2962.41H2943.18H2915.75H2888.34H2860.92H2833.51H2806.08H2778.67H2751.25H2723.84H2696.43H2669V132.425H2696.43V159.835V187.245H2723.84V214.671H2751.25V242.081H2778.67H2806.08H2833.51H2860.92H2888.34V214.671H2915.75V187.245H2943.18V159.835V132.425H2962.41H2970.59H2989.84V159.835V187.245H3017.25V214.671H3044.67V242.081H3072.08H3099.51H3126.92H3154.33H3181.75V214.671H3209.16V187.245H3236.59V159.835V132.425H3264V105H3236.59Z" fill="black"/>
<path d="M2751.25 132.426H2723.84V159.836H2751.25V132.426Z" fill="white"/>
<path d="M2860.92 187.246H2833.51V214.656H2860.92V187.246Z" fill="white"/>
<path d="M2833.49 159.836H2806.08V187.246H2833.49V159.836Z" fill="white"/>
<path d="M2778.66 159.836H2751.25V187.246H2778.66V159.836Z" fill="white"/>
<path d="M2806.08 187.246H2778.67V214.656H2806.08V187.246Z" fill="white"/>
<path d="M2888.32 159.836H2860.91V187.246H2888.32V159.836Z" fill="white"/>
<path d="M2915.75 132.426H2888.34V159.836H2915.75V132.426Z" fill="white"/>
<path d="M3209.16 132.426H3181.75V159.836H3209.16V132.426Z" fill="white"/>
<path d="M3099.49 187.246H3072.08V214.656H3099.49V187.246Z" fill="white"/>
<path d="M3126.92 159.836H3099.51V187.246H3126.92V159.836Z" fill="white"/>
<path d="M3181.74 159.836H3154.33V187.246H3181.74V159.836Z" fill="white"/>
<path d="M3154.33 187.246H3126.92V214.656H3154.33V187.246Z" fill="white"/>
<path d="M3072.09 159.836H3044.68V187.246H3072.09V159.836Z" fill="white"/>
<path d="M3044.66 132.426H3017.25V159.836H3044.66V132.426Z" fill="white"/>
<path d="M3256.59 1555H3229.16H3201.75H3174.33H3146.92H3119.51H3092.08H3064.67H3037.25H3009.84H2990.59H2982.41H2963.18H2935.75H2908.34H2880.92H2853.51H2826.08H2798.67H2771.25H2743.84H2716.43H2689V1582.43H2716.43V1609.84V1637.25H2743.84V1664.67H2771.25V1692.08H2798.67H2826.08H2853.51H2880.92H2908.34V1664.67H2935.75V1637.25H2963.18V1609.84V1582.43H2982.41H2990.59H3009.84V1609.84V1637.25H3037.25V1664.67H3064.67V1692.08H3092.08H3119.51H3146.92H3174.33H3201.75V1664.67H3229.16V1637.25H3256.59V1609.84V1582.43H3284V1555H3256.59Z" fill="black"/>
<path d="M2771.25 1582.43H2743.84V1609.84H2771.25V1582.43Z" fill="white"/>
<path d="M2880.92 1637.25H2853.51V1664.66H2880.92V1637.25Z" fill="white"/>
<path d="M2853.49 1609.84H2826.08V1637.25H2853.49V1609.84Z" fill="white"/>
<path d="M2798.66 1609.84H2771.25V1637.25H2798.66V1609.84Z" fill="white"/>
<path d="M2826.08 1637.25H2798.67V1664.66H2826.08V1637.25Z" fill="white"/>
<path d="M2908.32 1609.84H2880.91V1637.25H2908.32V1609.84Z" fill="white"/>
<path d="M2935.75 1582.43H2908.34V1609.84H2935.75V1582.43Z" fill="white"/>
<path d="M3229.16 1582.43H3201.75V1609.84H3229.16V1582.43Z" fill="white"/>
<path d="M3119.49 1637.25H3092.08V1664.66H3119.49V1637.25Z" fill="white"/>
<path d="M3146.92 1609.84H3119.51V1637.25H3146.92V1609.84Z" fill="white"/>
<path d="M3201.74 1609.84H3174.33V1637.25H3201.74V1609.84Z" fill="white"/>
<path d="M3174.33 1637.25H3146.92V1664.66H3174.33V1637.25Z" fill="white"/>
<path d="M3092.09 1609.84H3064.68V1637.25H3092.09V1609.84Z" fill="white"/>
<path d="M3064.66 1582.43H3037.25V1609.84H3064.66V1582.43Z" fill="white"/>
<path d="M3236.59 405H3209.16H3181.75H3154.33H3126.92H3099.51H3072.08H3044.67H3017.25H2989.84H2970.59H2962.41H2943.18H2915.75H2888.34H2860.92H2833.51H2806.08H2778.67H2751.25H2723.84H2696.43H2669V432.425H2696.43V459.835V487.245H2723.84V514.671H2751.25V542.081H2778.67H2806.08H2833.51H2860.92H2888.34V514.671H2915.75V487.245H2943.18V459.835V432.425H2962.41H2970.59H2989.84V459.835V487.245H3017.25V514.671H3044.67V542.081H3072.08H3099.51H3126.92H3154.33H3181.75V514.671H3209.16V487.245H3236.59V459.835V432.425H3264V405H3236.59Z" fill="black"/>
<path d="M2751.25 432.426H2723.84V459.836H2751.25V432.426Z" fill="white"/>
<path d="M2860.92 487.246H2833.51V514.656H2860.92V487.246Z" fill="white"/>
<path d="M2833.49 459.836H2806.08V487.246H2833.49V459.836Z" fill="white"/>
<path d="M2778.66 459.836H2751.25V487.246H2778.66V459.836Z" fill="white"/>
<path d="M2806.08 487.246H2778.67V514.656H2806.08V487.246Z" fill="white"/>
<path d="M2888.32 459.836H2860.91V487.246H2888.32V459.836Z" fill="white"/>
<path d="M2915.75 432.426H2888.34V459.836H2915.75V432.426Z" fill="white"/>
<path d="M3209.16 432.426H3181.75V459.836H3209.16V432.426Z" fill="white"/>
<path d="M3099.49 487.246H3072.08V514.656H3099.49V487.246Z" fill="white"/>
<path d="M3126.92 459.836H3099.51V487.246H3126.92V459.836Z" fill="white"/>
<path d="M3181.74 459.836H3154.33V487.246H3181.74V459.836Z" fill="white"/>
<path d="M3154.33 487.246H3126.92V514.656H3154.33V487.246Z" fill="white"/>
<path d="M3072.09 459.836H3044.68V487.246H3072.09V459.836Z" fill="white"/>
<path d="M3044.66 432.426H3017.25V459.836H3044.66V432.426Z" fill="white"/>
<path d="M3256.59 1855H3229.16H3201.75H3174.33H3146.92H3119.51H3092.08H3064.67H3037.25H3009.84H2990.59H2982.41H2963.18H2935.75H2908.34H2880.92H2853.51H2826.08H2798.67H2771.25H2743.84H2716.43H2689V1882.43H2716.43V1909.84V1937.25H2743.84V1964.67H2771.25V1992.08H2798.67H2826.08H2853.51H2880.92H2908.34V1964.67H2935.75V1937.25H2963.18V1909.84V1882.43H2982.41H2990.59H3009.84V1909.84V1937.25H3037.25V1964.67H3064.67V1992.08H3092.08H3119.51H3146.92H3174.33H3201.75V1964.67H3229.16V1937.25H3256.59V1909.84V1882.43H3284V1855H3256.59Z" fill="black"/>
<path d="M2771.25 1882.43H2743.84V1909.84H2771.25V1882.43Z" fill="white"/>
<path d="M2880.92 1937.25H2853.51V1964.66H2880.92V1937.25Z" fill="white"/>
<path d="M2853.49 1909.84H2826.08V1937.25H2853.49V1909.84Z" fill="white"/>
<path d="M2798.66 1909.84H2771.25V1937.25H2798.66V1909.84Z" fill="white"/>
<path d="M2826.08 1937.25H2798.67V1964.66H2826.08V1937.25Z" fill="white"/>
<path d="M2908.32 1909.84H2880.91V1937.25H2908.32V1909.84Z" fill="white"/>
<path d="M2935.75 1882.43H2908.34V1909.84H2935.75V1882.43Z" fill="white"/>
<path d="M3229.16 1882.43H3201.75V1909.84H3229.16V1882.43Z" fill="white"/>
<path d="M3119.49 1937.25H3092.08V1964.66H3119.49V1937.25Z" fill="white"/>
<path d="M3146.92 1909.84H3119.51V1937.25H3146.92V1909.84Z" fill="white"/>
<path d="M3201.74 1909.84H3174.33V1937.25H3201.74V1909.84Z" fill="white"/>
<path d="M3174.33 1937.25H3146.92V1964.66H3174.33V1937.25Z" fill="white"/>
<path d="M3092.09 1909.84H3064.68V1937.25H3092.09V1909.84Z" fill="white"/>
<path d="M3064.66 1882.43H3037.25V1909.84H3064.66V1882.43Z" fill="white"/>
<path d="M3927.59 105H3900.16H3872.75H3845.33H3817.92H3790.51H3763.08H3735.67H3708.25H3680.84H3661.59H3653.41H3634.18H3606.75H3579.34H3551.92H3524.51H3497.08H3469.67H3442.25H3414.84H3387.43H3360V132.425H3387.43V159.835V187.245H3414.84V214.671H3442.25V242.081H3469.67H3497.08H3524.51H3551.92H3579.34V214.671H3606.75V187.245H3634.18V159.835V132.425H3653.41H3661.59H3680.84V159.835V187.245H3708.25V214.671H3735.67V242.081H3763.08H3790.51H3817.92H3845.33H3872.75V214.671H3900.16V187.245H3927.59V159.835V132.425H3955V105H3927.59Z" fill="black"/>
<path d="M3442.25 132.426H3414.84V159.836H3442.25V132.426Z" fill="white"/>
<path d="M3551.92 187.246H3524.51V214.656H3551.92V187.246Z" fill="white"/>
<path d="M3524.49 159.836H3497.08V187.246H3524.49V159.836Z" fill="white"/>
<path d="M3469.66 159.836H3442.25V187.246H3469.66V159.836Z" fill="white"/>
<path d="M3497.08 187.246H3469.67V214.656H3497.08V187.246Z" fill="white"/>
<path d="M3579.32 159.836H3551.91V187.246H3579.32V159.836Z" fill="white"/>
<path d="M3606.75 132.426H3579.34V159.836H3606.75V132.426Z" fill="white"/>
<path d="M3735.66 132.426H3708.25V159.836H3735.66V132.426Z" fill="white"/>
<path d="M3947.59 1555H3920.16H3892.75H3865.33H3837.92H3810.51H3783.08H3755.67H3728.25H3700.84H3681.59H3673.41H3654.18H3626.75H3599.34H3571.92H3544.51H3517.08H3489.67H3462.25H3434.84H3407.43H3380V1582.43H3407.43V1609.84V1637.25H3434.84V1664.67H3462.25V1692.08H3489.67H3517.08H3544.51H3571.92H3599.34V1664.67H3626.75V1637.25H3654.18V1609.84V1582.43H3673.41H3681.59H3700.84V1609.84V1637.25H3728.25V1664.67H3755.67V1692.08H3783.08H3810.51H3837.92H3865.33H3892.75V1664.67H3920.16V1637.25H3947.59V1609.84V1582.43H3975V1555H3947.59Z" fill="black"/>
<path d="M3462.25 1582.43H3434.84V1609.84H3462.25V1582.43Z" fill="white"/>
<path d="M3571.92 1637.25H3544.51V1664.66H3571.92V1637.25Z" fill="white"/>
<path d="M3544.49 1609.84H3517.08V1637.25H3544.49V1609.84Z" fill="white"/>
<path d="M3489.66 1609.84H3462.25V1637.25H3489.66V1609.84Z" fill="white"/>
<path d="M3517.08 1637.25H3489.67V1664.66H3517.08V1637.25Z" fill="white"/>
<path d="M3599.32 1609.84H3571.91V1637.25H3599.32V1609.84Z" fill="white"/>
<path d="M3626.75 1582.43H3599.34V1609.84H3626.75V1582.43Z" fill="white"/>
<path d="M3755.66 1582.43H3728.25V1609.84H3755.66V1582.43Z" fill="white"/>
<path d="M3927.59 405H3900.16H3872.75H3845.33H3817.92H3790.51H3763.08H3735.67H3708.25H3680.84H3661.59H3653.41H3634.18H3606.75H3579.34H3551.92H3524.51H3497.08H3469.67H3442.25H3414.84H3387.43H3360V432.425H3387.43V459.835V487.245H3414.84V514.671H3442.25V542.081H3469.67H3497.08H3524.51H3551.92H3579.34V514.671H3606.75V487.245H3634.18V459.835V432.425H3653.41H3661.59H3680.84V459.835V487.245H3708.25V514.671H3735.67V542.081H3763.08H3790.51H3817.92H3845.33H3872.75V514.671H3900.16V487.245H3927.59V459.835V432.425H3955V405H3927.59Z" fill="black"/>
<path d="M3442.25 432.426H3414.84V459.836H3442.25V432.426Z" fill="white"/>
<path d="M3551.92 487.246H3524.51V514.656H3551.92V487.246Z" fill="white"/>
<path d="M3524.49 459.836H3497.08V487.246H3524.49V459.836Z" fill="white"/>
<path d="M3469.66 459.836H3442.25V487.246H3469.66V459.836Z" fill="white"/>
<path d="M3497.08 487.246H3469.67V514.656H3497.08V487.246Z" fill="white"/>
<path d="M3579.32 459.836H3551.91V487.246H3579.32V459.836Z" fill="white"/>
<path d="M3606.75 432.426H3579.34V459.836H3606.75V432.426Z" fill="white"/>
<path d="M3735.66 432.426H3708.25V459.836H3735.66V432.426Z" fill="white"/>
<path d="M3947.59 1855H3920.16H3892.75H3865.33H3837.92H3810.51H3783.08H3755.67H3728.25H3700.84H3681.59H3673.41H3654.18H3626.75H3599.34H3571.92H3544.51H3517.08H3489.67H3462.25H3434.84H3407.43H3380V1882.43H3407.43V1909.84V1937.25H3434.84V1964.67H3462.25V1992.08H3489.67H3517.08H3544.51H3571.92H3599.34V1964.67H3626.75V1937.25H3654.18V1909.84V1882.43H3673.41H3681.59H3700.84V1909.84V1937.25H3728.25V1964.67H3755.67V1992.08H3783.08H3810.51H3837.92H3865.33H3892.75V1964.67H3920.16V1937.25H3947.59V1909.84V1882.43H3975V1855H3947.59Z" fill="black"/>
<path d="M3462.25 1882.43H3434.84V1909.84H3462.25V1882.43Z" fill="white"/>
<path d="M3571.92 1937.25H3544.51V1964.66H3571.92V1937.25Z" fill="white"/>
<path d="M3544.49 1909.84H3517.08V1937.25H3544.49V1909.84Z" fill="white"/>
<path d="M3489.66 1909.84H3462.25V1937.25H3489.66V1909.84Z" fill="white"/>
<path d="M3517.08 1937.25H3489.67V1964.66H3517.08V1937.25Z" fill="white"/>
<path d="M3599.32 1909.84H3571.91V1937.25H3599.32V1909.84Z" fill="white"/>
<path d="M3626.75 1882.43H3599.34V1909.84H3626.75V1882.43Z" fill="white"/>
<path d="M3755.66 1882.43H3728.25V1909.84H3755.66V1882.43Z" fill="white"/>
</g>
<defs>
<clipPath id="clip0_8318_7027">
<rect width="3732" height="2051" fill="white"/>
</clipPath>
</defs>
</svg>
